<?xml version="1.0" encoding="utf-8" standalone="no"?>
<!DOCTYPE svg PUBLIC "-//W3C//DTD SVG 1.1//EN"
  "http://www.w3.org/Graphics/SVG/1.1/DTD/svg11.dtd">
<svg xmlns:xlink="http://www.w3.org/1999/xlink" width="396pt" height="194.4pt" viewBox="0 0 396 194.4" xmlns="http://www.w3.org/2000/svg" version="1.1">
 <metadata>
  <rdf:RDF xmlns:dc="http://purl.org/dc/elements/1.1/" xmlns:cc="http://creativecommons.org/ns#" xmlns:rdf="http://www.w3.org/1999/02/22-rdf-syntax-ns#">
   <cc:Work>
    <dc:type rdf:resource="http://purl.org/dc/dcmitype/StillImage"/>
    <dc:date>2026-09-25T22:06:57.189063</dc:date>
    <dc:format>image/svg+xml</dc:format>
    <dc:creator>
     <cc:Agent>
      <dc:title>Matplotlib v3.10.8, https://matplotlib.org/</dc:title>
     </cc:Agent>
    </dc:creator>
   </cc:Work>
  </rdf:RDF>
 </metadata>
 <defs>
  <style type="text/css">*{stroke-linejoin: round; stroke-linecap: butt}</style>
 </defs>
 <g id="figure_1">
  <g id="patch_1">
   <path d="M 0 194.4 
L 396 194.4 
L 396 0 
L 0 0 
z
" style="fill: #ffffff"/>
  </g>
  <g id="axes_1">
   <g id="patch_2">
    <path d="M 8.52786 97.824024 
L 205.70814 97.824024 
Q 208.70784 97.824024 208.70784 95.170464 
L 208.70784 41.92236 
Q 208.70784 39.2688 205.70814 39.2688 
L 8.52786 39.2688 
Q 5.52816 39.2688 5.52816 41.92236 
L 5.52816 95.170464 
Q 5.52816 97.824024 8.52786 97.824024 
z
" style="fill: #fcf5ef; stroke: #debca5; stroke-width: 0.65; stroke-linejoin: miter"/>
   </g>
   <g id="patch_3">
    <path d="M 8.52786 161.509464 
L 205.70814 161.509464 
Q 208.70784 161.509464 208.70784 158.855904 
L 208.70784 105.6078 
Q 208.70784 102.95424 205.70814 102.95424 
L 8.52786 102.95424 
Q 5.52816 102.95424 5.52816 105.6078 
L 5.52816 158.855904 
Q 5.52816 161.509464 8.52786 161.509464 
z
" style="fill: #eff8f4; stroke: #9abdae; stroke-width: 0.65; stroke-linejoin: miter"/>
   </g>
   <g id="text_1">
    <text style="font-weight: 700; font-size: 9px; font-family: 'STIXGeneral', serif; text-anchor: start; fill: #24313c" x="7.128" y="10.134563" transform="rotate(-0 7.128 10.134563)">(a) Final code and repair outcome</text>
   </g>
   <g id="text_2">
    <text style="font-size: 8px; font-family: 'STIXGeneral', serif; text-anchor: start; fill: #24313c" x="7.128" y="23.857878" transform="rotate(-0 7.128 23.857878)">Autoencoder: Linear → Tanh → Linear</text>
   </g>
   <g id="text_3">
    <!-- Loss difference: $1.43 \times 10^{-6}$ before and after repair -->
    <g style="fill: #58646f" transform="translate(7.128 33.716232)">
     <text>
      <tspan x="0" y="-0.346875" style="font-size: 7.5px; font-family: 'STIXGeneral'; fill: #58646f">L</tspan>
      <tspan x="4.582489" y="-0.346875" style="font-size: 7.5px; font-family: 'STIXGeneral'; fill: #58646f">o</tspan>
      <tspan x="8.332474" y="-0.346875" style="font-size: 7.5px; font-family: 'STIXGeneral'; fill: #58646f">s</tspan>
      <tspan x="11.249969" y="-0.346875" style="font-size: 7.5px; font-family: 'STIXGeneral'; fill: #58646f">s</tspan>
      <tspan x="14.167465" y="-0.346875" style="font-size: 7.5px; font-family: 'STIXGeneral'; fill: #58646f"> </tspan>
      <tspan x="16.04245" y="-0.346875" style="font-size: 7.5px; font-family: 'STIXGeneral'; fill: #58646f">d</tspan>
      <tspan x="19.792435" y="-0.346875" style="font-size: 7.5px; font-family: 'STIXGeneral'; fill: #58646f">i</tspan>
      <tspan x="21.877426" y="-0.346875" style="font-size: 7.5px; font-family: 'STIXGeneral'; fill: #58646f">f</tspan>
      <tspan x="24.374924" y="-0.346875" style="font-size: 7.5px; font-family: 'STIXGeneral'; fill: #58646f">f</tspan>
      <tspan x="26.872421" y="-0.346875" style="font-size: 7.5px; font-family: 'STIXGeneral'; fill: #58646f">e</tspan>
      <tspan x="30.202408" y="-0.346875" style="font-size: 7.5px; font-family: 'STIXGeneral'; fill: #58646f">r</tspan>
      <tspan x="32.699905" y="-0.346875" style="font-size: 7.5px; font-family: 'STIXGeneral'; fill: #58646f">e</tspan>
      <tspan x="36.029892" y="-0.346875" style="font-size: 7.5px; font-family: 'STIXGeneral'; fill: #58646f">n</tspan>
      <tspan x="39.779877" y="-0.346875" style="font-size: 7.5px; font-family: 'STIXGeneral'; fill: #58646f">c</tspan>
      <tspan x="43.109863" y="-0.346875" style="font-size: 7.5px; font-family: 'STIXGeneral'; fill: #58646f">e</tspan>
      <tspan x="46.43985" y="-0.346875" style="font-size: 7.5px; font-family: 'STIXGeneral'; fill: #58646f">:</tspan>
      <tspan x="48.524841" y="-0.346875" style="font-size: 7.5px; font-family: 'STIXGeneral'; fill: #58646f"> </tspan>
      <tspan x="50.399826" y="-0.346875" style="font-size: 7.5px; font-family: 'STIXGeneral'; fill: #58646f">1</tspan>
      <tspan x="54.149811" y="-0.346875" style="font-size: 7.5px; font-family: 'STIXGeneral'; fill: #58646f">.</tspan>
      <tspan x="56.024796" y="-0.346875" style="font-size: 7.5px; font-family: 'STIXGeneral'; fill: #58646f">4</tspan>
      <tspan x="59.77478" y="-0.346875" style="font-size: 7.5px; font-family: 'STIXGeneral'; fill: #58646f">3</tspan>
      <tspan x="64.607764" y="-0.346875" style="font-size: 7.5px; font-family: 'STIXGeneral'; fill: #58646f">×</tspan>
      <tspan x="70.49075" y="-0.346875" style="font-size: 7.5px; font-family: 'STIXGeneral'; fill: #58646f">1</tspan>
      <tspan x="74.240735" y="-0.346875" style="font-size: 7.5px; font-family: 'STIXGeneral'; fill: #58646f">0</tspan>
      <tspan x="84.688665" y="-0.346875" style="font-size: 7.5px; font-family: 'STIXGeneral'; fill: #58646f"> </tspan>
      <tspan x="86.56365" y="-0.346875" style="font-size: 7.5px; font-family: 'STIXGeneral'; fill: #58646f">b</tspan>
      <tspan x="90.313634" y="-0.346875" style="font-size: 7.5px; font-family: 'STIXGeneral'; fill: #58646f">e</tspan>
      <tspan x="93.643621" y="-0.346875" style="font-size: 7.5px; font-family: 'STIXGeneral'; fill: #58646f">f</tspan>
      <tspan x="96.141118" y="-0.346875" style="font-size: 7.5px; font-family: 'STIXGeneral'; fill: #58646f">o</tspan>
      <tspan x="99.891103" y="-0.346875" style="font-size: 7.5px; font-family: 'STIXGeneral'; fill: #58646f">r</tspan>
      <tspan x="102.388601" y="-0.346875" style="font-size: 7.5px; font-family: 'STIXGeneral'; fill: #58646f">e</tspan>
      <tspan x="105.718587" y="-0.346875" style="font-size: 7.5px; font-family: 'STIXGeneral'; fill: #58646f"> </tspan>
      <tspan x="107.593572" y="-0.346875" style="font-size: 7.5px; font-family: 'STIXGeneral'; fill: #58646f">a</tspan>
      <tspan x="110.923559" y="-0.346875" style="font-size: 7.5px; font-family: 'STIXGeneral'; fill: #58646f">n</tspan>
      <tspan x="114.673543" y="-0.346875" style="font-size: 7.5px; font-family: 'STIXGeneral'; fill: #58646f">d</tspan>
      <tspan x="118.423528" y="-0.346875" style="font-size: 7.5px; font-family: 'STIXGeneral'; fill: #58646f"> </tspan>
      <tspan x="120.298513" y="-0.346875" style="font-size: 7.5px; font-family: 'STIXGeneral'; fill: #58646f">a</tspan>
      <tspan x="123.628499" y="-0.346875" style="font-size: 7.5px; font-family: 'STIXGeneral'; fill: #58646f">f</tspan>
      <tspan x="126.125997" y="-0.346875" style="font-size: 7.5px; font-family: 'STIXGeneral'; fill: #58646f">t</tspan>
      <tspan x="128.210988" y="-0.346875" style="font-size: 7.5px; font-family: 'STIXGeneral'; fill: #58646f">e</tspan>
      <tspan x="131.540975" y="-0.346875" style="font-size: 7.5px; font-family: 'STIXGeneral'; fill: #58646f">r</tspan>
      <tspan x="134.038473" y="-0.346875" style="font-size: 7.5px; font-family: 'STIXGeneral'; fill: #58646f"> </tspan>
      <tspan x="135.913457" y="-0.346875" style="font-size: 7.5px; font-family: 'STIXGeneral'; fill: #58646f">r</tspan>
      <tspan x="138.410955" y="-0.346875" style="font-size: 7.5px; font-family: 'STIXGeneral'; fill: #58646f">e</tspan>
      <tspan x="141.740941" y="-0.346875" style="font-size: 7.5px; font-family: 'STIXGeneral'; fill: #58646f">p</tspan>
      <tspan x="145.490926" y="-0.346875" style="font-size: 7.5px; font-family: 'STIXGeneral'; fill: #58646f">a</tspan>
      <tspan x="148.820913" y="-0.346875" style="font-size: 7.5px; font-family: 'STIXGeneral'; fill: #58646f">i</tspan>
      <tspan x="150.905904" y="-0.346875" style="font-size: 7.5px; font-family: 'STIXGeneral'; fill: #58646f">r</tspan>
      <tspan x="78.114313" y="-3.171875" style="font-size: 5.25px; font-family: 'STIXGeneral'; fill: #58646f">−</tspan>
      <tspan x="81.710551" y="-3.171875" style="font-size: 5.25px; font-family: 'STIXGeneral'; fill: #58646f">6</tspan>
     </text>
    </g>
   </g>
   <g id="text_4">
    <text style="font-weight: 700; font-size: 8px; font-family: 'STIXGeneral', serif; text-anchor: start; fill: #a34511" x="12.1275" y="50.819786" transform="rotate(-0 12.1275 50.819786)">SWE-agent / MatchFixAgent</text>
   </g>
   <g id="text_5">
    <text style="font-size: 7.4px; font-family: 'STIXGeneral', serif; text-anchor: start; fill: #58646f" x="12.1275" y="59.890321" transform="rotate(-0 12.1275 59.890321)">Tanh mapping still absent; existing ReLU mapping:</text>
   </g>
   <g id="text_6">
    <text style="font-size: 7px; font-family: 'DejaVu Sans Mono'; text-anchor: start; fill: #24313c" x="12.1275" y="70.275974" transform="rotate(-0 12.1275 70.275974)">@register_function(torch.relu)</text>
   </g>
   <g id="text_7">
    <text style="font-size: 7px; font-family: 'DejaVu Sans Mono'; text-anchor: start; fill: #24313c" x="12.1275" y="78.590462" transform="rotate(-0 12.1275 78.590462)">@register_function(torch.nn.functional.relu)</text>
   </g>
   <g id="text_8">
    <text style="font-size: 7px; font-family: 'DejaVu Sans Mono'; text-anchor: start; fill: #24313c" x="12.1275" y="86.90495" transform="rotate(-0 12.1275 86.90495)">def functional_relu(input, inplace=False):</text>
   </g>
   <g id="text_9">
    <text style="font-size: 7px; font-family: 'DejaVu Sans Mono'; text-anchor: start; fill: #24313c" x="12.1275" y="95.219438" transform="rotate(-0 12.1275 95.219438)">    return mops.relu(input)</text>
   </g>
   <g id="text_10">
    <text style="font-weight: 700; font-size: 8px; font-family: 'STIXGeneral', serif; text-anchor: start; fill: #007c61" x="12.1275" y="114.199572" transform="rotate(-0 12.1275 114.199572)">LaDiM</text>
   </g>
   <g id="text_11">
    <text style="font-size: 7.4px; font-family: 'STIXGeneral', serif; text-anchor: start; fill: #58646f" x="12.1275" y="123.398857" transform="rotate(-0 12.1275 123.398857)">Added Tanh mapping; accepted on all three seeds</text>
   </g>
   <g id="text_12">
    <text style="font-size: 7px; font-family: 'DejaVu Sans Mono'; text-anchor: start; fill: #00644e" x="12.1275" y="133.747322" transform="rotate(-0 12.1275 133.747322)">@register_function(torch.tanh)</text>
   </g>
   <g id="text_13">
    <text style="font-size: 7px; font-family: 'DejaVu Sans Mono'; text-anchor: start; fill: #00644e" x="12.1275" y="142.098998" transform="rotate(-0 12.1275 142.098998)">@register_function(torch.nn.functional.tanh)</text>
   </g>
   <g id="text_14">
    <text style="font-size: 7px; font-family: 'DejaVu Sans Mono'; text-anchor: start; fill: #00644e" x="12.1275" y="150.413486" transform="rotate(-0 12.1275 150.413486)">def functional_tanh(input):</text>
   </g>
   <g id="text_15">
    <text style="font-size: 7px; font-family: 'DejaVu Sans Mono'; text-anchor: start; fill: #00644e" x="12.1275" y="158.727974" transform="rotate(-0 12.1275 158.727974)">    return mops.tanh(input)</text>
   </g>
   <g id="text_16">
    <!-- Gradient vector difference: $0.359 \rightarrow 1.01 \times 10^{-6}$ -->
    <g style="fill: #24313c" transform="translate(7.128 172.646466)">
     <text>
      <tspan x="0" y="-0.346875" style="font-size: 7.5px; font-family: 'STIXGeneral'; fill: #24313c">G</tspan>
      <tspan x="5.414993" y="-0.346875" style="font-size: 7.5px; font-family: 'STIXGeneral'; fill: #24313c">r</tspan>
      <tspan x="7.912491" y="-0.346875" style="font-size: 7.5px; font-family: 'STIXGeneral'; fill: #24313c">a</tspan>
      <tspan x="11.242477" y="-0.346875" style="font-size: 7.5px; font-family: 'STIXGeneral'; fill: #24313c">d</tspan>
      <tspan x="14.992462" y="-0.346875" style="font-size: 7.5px; font-family: 'STIXGeneral'; fill: #24313c">i</tspan>
      <tspan x="17.077454" y="-0.346875" style="font-size: 7.5px; font-family: 'STIXGeneral'; fill: #24313c">e</tspan>
      <tspan x="20.40744" y="-0.346875" style="font-size: 7.5px; font-family: 'STIXGeneral'; fill: #24313c">n</tspan>
      <tspan x="24.157425" y="-0.346875" style="font-size: 7.5px; font-family: 'STIXGeneral'; fill: #24313c">t</tspan>
      <tspan x="26.242416" y="-0.346875" style="font-size: 7.5px; font-family: 'STIXGeneral'; fill: #24313c"> </tspan>
      <tspan x="28.117401" y="-0.346875" style="font-size: 7.5px; font-family: 'STIXGeneral'; fill: #24313c">v</tspan>
      <tspan x="31.867386" y="-0.346875" style="font-size: 7.5px; font-family: 'STIXGeneral'; fill: #24313c">e</tspan>
      <tspan x="35.197372" y="-0.346875" style="font-size: 7.5px; font-family: 'STIXGeneral'; fill: #24313c">c</tspan>
      <tspan x="38.527359" y="-0.346875" style="font-size: 7.5px; font-family: 'STIXGeneral'; fill: #24313c">t</tspan>
      <tspan x="40.61235" y="-0.346875" style="font-size: 7.5px; font-family: 'STIXGeneral'; fill: #24313c">o</tspan>
      <tspan x="44.362335" y="-0.346875" style="font-size: 7.5px; font-family: 'STIXGeneral'; fill: #24313c">r</tspan>
      <tspan x="46.859833" y="-0.346875" style="font-size: 7.5px; font-family: 'STIXGeneral'; fill: #24313c"> </tspan>
      <tspan x="48.734818" y="-0.346875" style="font-size: 7.5px; font-family: 'STIXGeneral'; fill: #24313c">d</tspan>
      <tspan x="52.484802" y="-0.346875" style="font-size: 7.5px; font-family: 'STIXGeneral'; fill: #24313c">i</tspan>
      <tspan x="54.569794" y="-0.346875" style="font-size: 7.5px; font-family: 'STIXGeneral'; fill: #24313c">f</tspan>
      <tspan x="57.067291" y="-0.346875" style="font-size: 7.5px; font-family: 'STIXGeneral'; fill: #24313c">f</tspan>
      <tspan x="59.564789" y="-0.346875" style="font-size: 7.5px; font-family: 'STIXGeneral'; fill: #24313c">e</tspan>
      <tspan x="62.894775" y="-0.346875" style="font-size: 7.5px; font-family: 'STIXGeneral'; fill: #24313c">r</tspan>
      <tspan x="65.392273" y="-0.346875" style="font-size: 7.5px; font-family: 'STIXGeneral'; fill: #24313c">e</tspan>
      <tspan x="68.72226" y="-0.346875" style="font-size: 7.5px; font-family: 'STIXGeneral'; fill: #24313c">n</tspan>
      <tspan x="72.472244" y="-0.346875" style="font-size: 7.5px; font-family: 'STIXGeneral'; fill: #24313c">c</tspan>
      <tspan x="75.802231" y="-0.346875" style="font-size: 7.5px; font-family: 'STIXGeneral'; fill: #24313c">e</tspan>
      <tspan x="79.132217" y="-0.346875" style="font-size: 7.5px; font-family: 'STIXGeneral'; fill: #24313c">:</tspan>
      <tspan x="81.217209" y="-0.346875" style="font-size: 7.5px; font-family: 'STIXGeneral'; fill: #24313c"> </tspan>
      <tspan x="83.092194" y="-0.346875" style="font-size: 7.5px; font-family: 'STIXGeneral'; fill: #24313c">0</tspan>
      <tspan x="86.842178" y="-0.346875" style="font-size: 7.5px; font-family: 'STIXGeneral'; fill: #24313c">.</tspan>
      <tspan x="88.717163" y="-0.346875" style="font-size: 7.5px; font-family: 'STIXGeneral'; fill: #24313c">3</tspan>
      <tspan x="92.467148" y="-0.346875" style="font-size: 7.5px; font-family: 'STIXGeneral'; fill: #24313c">5</tspan>
      <tspan x="96.217133" y="-0.346875" style="font-size: 7.5px; font-family: 'STIXGeneral'; fill: #24313c">9</tspan>
      <tspan x="101.050116" y="-0.346875" style="font-size: 7.5px; font-family: 'STIXGeneral'; fill: #24313c">→</tspan>
      <tspan x="109.078107" y="-0.346875" style="font-size: 7.5px; font-family: 'STIXGeneral'; fill: #24313c">1</tspan>
      <tspan x="112.828091" y="-0.346875" style="font-size: 7.5px; font-family: 'STIXGeneral'; fill: #24313c">.</tspan>
      <tspan x="114.703076" y="-0.346875" style="font-size: 7.5px; font-family: 'STIXGeneral'; fill: #24313c">0</tspan>
      <tspan x="118.453061" y="-0.346875" style="font-size: 7.5px; font-family: 'STIXGeneral'; fill: #24313c">1</tspan>
      <tspan x="123.286044" y="-0.346875" style="font-size: 7.5px; font-family: 'STIXGeneral'; fill: #24313c">×</tspan>
      <tspan x="129.169031" y="-0.346875" style="font-size: 7.5px; font-family: 'STIXGeneral'; fill: #24313c">1</tspan>
      <tspan x="132.919016" y="-0.346875" style="font-size: 7.5px; font-family: 'STIXGeneral'; fill: #24313c">0</tspan>
      <tspan x="136.792594" y="-3.171875" style="font-size: 5.25px; font-family: 'STIXGeneral'; fill: #24313c">−</tspan>
      <tspan x="140.388831" y="-3.171875" style="font-size: 5.25px; font-family: 'STIXGeneral'; fill: #24313c">6</tspan>
     </text>
    </g>
   </g>
   <g id="text_17">
    <!-- Relative parameter update difference: $0.771 \rightarrow 6.42 \times 10^{-6}$ -->
    <g style="fill: #24313c" transform="translate(7.128 182.6694)">
     <text>
      <tspan x="0" y="-0.346875" style="font-size: 7.5px; font-family: 'STIXGeneral'; fill: #24313c">R</tspan>
      <tspan x="5.002487" y="-0.346875" style="font-size: 7.5px; font-family: 'STIXGeneral'; fill: #24313c">e</tspan>
      <tspan x="8.332474" y="-0.346875" style="font-size: 7.5px; font-family: 'STIXGeneral'; fill: #24313c">l</tspan>
      <tspan x="10.417465" y="-0.346875" style="font-size: 7.5px; font-family: 'STIXGeneral'; fill: #24313c">a</tspan>
      <tspan x="13.747452" y="-0.346875" style="font-size: 7.5px; font-family: 'STIXGeneral'; fill: #24313c">t</tspan>
      <tspan x="15.832443" y="-0.346875" style="font-size: 7.5px; font-family: 'STIXGeneral'; fill: #24313c">i</tspan>
      <tspan x="17.917435" y="-0.346875" style="font-size: 7.5px; font-family: 'STIXGeneral'; fill: #24313c">v</tspan>
      <tspan x="21.667419" y="-0.346875" style="font-size: 7.5px; font-family: 'STIXGeneral'; fill: #24313c">e</tspan>
      <tspan x="24.997406" y="-0.346875" style="font-size: 7.5px; font-family: 'STIXGeneral'; fill: #24313c"> </tspan>
      <tspan x="26.872391" y="-0.346875" style="font-size: 7.5px; font-family: 'STIXGeneral'; fill: #24313c">p</tspan>
      <tspan x="30.622375" y="-0.346875" style="font-size: 7.5px; font-family: 'STIXGeneral'; fill: #24313c">a</tspan>
      <tspan x="33.952362" y="-0.346875" style="font-size: 7.5px; font-family: 'STIXGeneral'; fill: #24313c">r</tspan>
      <tspan x="36.44986" y="-0.346875" style="font-size: 7.5px; font-family: 'STIXGeneral'; fill: #24313c">a</tspan>
      <tspan x="39.779846" y="-0.346875" style="font-size: 7.5px; font-family: 'STIXGeneral'; fill: #24313c">m</tspan>
      <tspan x="45.614838" y="-0.346875" style="font-size: 7.5px; font-family: 'STIXGeneral'; fill: #24313c">e</tspan>
      <tspan x="48.944824" y="-0.346875" style="font-size: 7.5px; font-family: 'STIXGeneral'; fill: #24313c">t</tspan>
      <tspan x="51.029816" y="-0.346875" style="font-size: 7.5px; font-family: 'STIXGeneral'; fill: #24313c">e</tspan>
      <tspan x="54.359802" y="-0.346875" style="font-size: 7.5px; font-family: 'STIXGeneral'; fill: #24313c">r</tspan>
      <tspan x="56.8573" y="-0.346875" style="font-size: 7.5px; font-family: 'STIXGeneral'; fill: #24313c"> </tspan>
      <tspan x="58.732285" y="-0.346875" style="font-size: 7.5px; font-family: 'STIXGeneral'; fill: #24313c">u</tspan>
      <tspan x="62.482269" y="-0.346875" style="font-size: 7.5px; font-family: 'STIXGeneral'; fill: #24313c">p</tspan>
      <tspan x="66.232254" y="-0.346875" style="font-size: 7.5px; font-family: 'STIXGeneral'; fill: #24313c">d</tspan>
      <tspan x="69.982239" y="-0.346875" style="font-size: 7.5px; font-family: 'STIXGeneral'; fill: #24313c">a</tspan>
      <tspan x="73.312225" y="-0.346875" style="font-size: 7.5px; font-family: 'STIXGeneral'; fill: #24313c">t</tspan>
      <tspan x="75.397217" y="-0.346875" style="font-size: 7.5px; font-family: 'STIXGeneral'; fill: #24313c">e</tspan>
      <tspan x="78.727203" y="-0.346875" style="font-size: 7.5px; font-family: 'STIXGeneral'; fill: #24313c"> </tspan>
      <tspan x="80.602188" y="-0.346875" style="font-size: 7.5px; font-family: 'STIXGeneral'; fill: #24313c">d</tspan>
      <tspan x="84.352173" y="-0.346875" style="font-size: 7.5px; font-family: 'STIXGeneral'; fill: #24313c">i</tspan>
      <tspan x="86.437164" y="-0.346875" style="font-size: 7.5px; font-family: 'STIXGeneral'; fill: #24313c">f</tspan>
      <tspan x="88.934662" y="-0.346875" style="font-size: 7.5px; font-family: 'STIXGeneral'; fill: #24313c">f</tspan>
      <tspan x="91.432159" y="-0.346875" style="font-size: 7.5px; font-family: 'STIXGeneral'; fill: #24313c">e</tspan>
      <tspan x="94.762146" y="-0.346875" style="font-size: 7.5px; font-family: 'STIXGeneral'; fill: #24313c">r</tspan>
      <tspan x="97.259644" y="-0.346875" style="font-size: 7.5px; font-family: 'STIXGeneral'; fill: #24313c">e</tspan>
      <tspan x="100.58963" y="-0.346875" style="font-size: 7.5px; font-family: 'STIXGeneral'; fill: #24313c">n</tspan>
      <tspan x="104.339615" y="-0.346875" style="font-size: 7.5px; font-family: 'STIXGeneral'; fill: #24313c">c</tspan>
      <tspan x="107.669601" y="-0.346875" style="font-size: 7.5px; font-family: 'STIXGeneral'; fill: #24313c">e</tspan>
      <tspan x="110.999588" y="-0.346875" style="font-size: 7.5px; font-family: 'STIXGeneral'; fill: #24313c">:</tspan>
      <tspan x="113.084579" y="-0.346875" style="font-size: 7.5px; font-family: 'STIXGeneral'; fill: #24313c"> </tspan>
      <tspan x="114.959564" y="-0.346875" style="font-size: 7.5px; font-family: 'STIXGeneral'; fill: #24313c">0</tspan>
      <tspan x="118.709549" y="-0.346875" style="font-size: 7.5px; font-family: 'STIXGeneral'; fill: #24313c">.</tspan>
      <tspan x="120.584534" y="-0.346875" style="font-size: 7.5px; font-family: 'STIXGeneral'; fill: #24313c">7</tspan>
      <tspan x="124.334518" y="-0.346875" style="font-size: 7.5px; font-family: 'STIXGeneral'; fill: #24313c">7</tspan>
      <tspan x="128.084503" y="-0.346875" style="font-size: 7.5px; font-family: 'STIXGeneral'; fill: #24313c">1</tspan>
      <tspan x="132.917487" y="-0.346875" style="font-size: 7.5px; font-family: 'STIXGeneral'; fill: #24313c">→</tspan>
      <tspan x="140.945477" y="-0.346875" style="font-size: 7.5px; font-family: 'STIXGeneral'; fill: #24313c">6</tspan>
      <tspan x="144.695462" y="-0.346875" style="font-size: 7.5px; font-family: 'STIXGeneral'; fill: #24313c">.</tspan>
      <tspan x="146.570447" y="-0.346875" style="font-size: 7.5px; font-family: 'STIXGeneral'; fill: #24313c">4</tspan>
      <tspan x="150.320432" y="-0.346875" style="font-size: 7.5px; font-family: 'STIXGeneral'; fill: #24313c">2</tspan>
      <tspan x="155.153415" y="-0.346875" style="font-size: 7.5px; font-family: 'STIXGeneral'; fill: #24313c">×</tspan>
      <tspan x="161.036401" y="-0.346875" style="font-size: 7.5px; font-family: 'STIXGeneral'; fill: #24313c">1</tspan>
      <tspan x="164.786386" y="-0.346875" style="font-size: 7.5px; font-family: 'STIXGeneral'; fill: #24313c">0</tspan>
      <tspan x="168.659965" y="-3.171875" style="font-size: 5.25px; font-family: 'STIXGeneral'; fill: #24313c">−</tspan>
      <tspan x="172.256202" y="-3.171875" style="font-size: 5.25px; font-family: 'STIXGeneral'; fill: #24313c">6</tspan>
     </text>
    </g>
   </g>
  </g>
  <g id="axes_2">
   <g id="patch_4">
    <path d="M 247.896 136.08 
L 389.268 136.08 
L 389.268 25.272 
L 247.896 25.272 
z
" style="fill: #ffffff"/>
   </g>
   <g id="matplotlib.axis_1">
    <g id="xtick_1">
     <g id="line2d_1">
      <defs>
       <path id="m94ba17c152" d="M 0 0 
L 0 2.5 
" style="stroke: #58646f; stroke-width: 0.5"/>
      </defs>
      <g>
       <use xlink:href="#m94ba17c152" x="247.896" y="136.08" style="fill: #58646f; stroke: #58646f; stroke-width: 0.5"/>
      </g>
     </g>
     <g id="text_18">
      <text style="font-size: 7.3px; font-family: 'STIXGeneral', serif; text-anchor: middle; fill: #58646f" x="247.896" y="145.565672" transform="rotate(-0 247.896 145.565672)">0</text>
     </g>
    </g>
    <g id="xtick_2">
     <g id="line2d_2">
      <g>
       <use xlink:href="#m94ba17c152" x="277.975149" y="136.08" style="fill: #58646f; stroke: #58646f; stroke-width: 0.5"/>
      </g>
     </g>
     <g id="text_19">
      <text style="font-size: 7.3px; font-family: 'STIXGeneral', serif; text-anchor: middle; fill: #58646f" x="277.975149" y="145.565672" transform="rotate(-0 277.975149 145.565672)">10</text>
     </g>
    </g>
    <g id="xtick_3">
     <g id="line2d_3">
      <g>
       <use xlink:href="#m94ba17c152" x="308.054298" y="136.08" style="fill: #58646f; stroke: #58646f; stroke-width: 0.5"/>
      </g>
     </g>
     <g id="text_20">
      <text style="font-size: 7.3px; font-family: 'STIXGeneral', serif; text-anchor: middle; fill: #58646f" x="308.054298" y="145.565672" transform="rotate(-0 308.054298 145.565672)">20</text>
     </g>
    </g>
    <g id="xtick_4">
     <g id="line2d_4">
      <g>
       <use xlink:href="#m94ba17c152" x="338.133447" y="136.08" style="fill: #58646f; stroke: #58646f; stroke-width: 0.5"/>
      </g>
     </g>
     <g id="text_21">
      <text style="font-size: 7.3px; font-family: 'STIXGeneral', serif; text-anchor: middle; fill: #58646f" x="338.133447" y="145.565672" transform="rotate(-0 338.133447 145.565672)">30</text>
     </g>
    </g>
    <g id="xtick_5">
     <g id="line2d_5">
      <g>
       <use xlink:href="#m94ba17c152" x="368.212596" y="136.08" style="fill: #58646f; stroke: #58646f; stroke-width: 0.5"/>
      </g>
     </g>
     <g id="text_22">
      <text style="font-size: 7.3px; font-family: 'STIXGeneral', serif; text-anchor: middle; fill: #58646f" x="368.212596" y="145.565672" transform="rotate(-0 368.212596 145.565672)">40</text>
     </g>
    </g>
    <g id="text_23">
     <text style="font-size: 8px; font-family: 'STIXGeneral', serif; text-anchor: middle; fill: #24313c" x="318.582" y="156.61375" transform="rotate(-0 318.582 156.61375)">LLM calls</text>
    </g>
   </g>
   <g id="matplotlib.axis_2">
    <g id="ytick_1">
     <g id="line2d_6">
      <path d="M 247.896 136.08 
L 389.268 136.08 
" clip-path="url(#pa7e057d6ca)" style="fill: none; stroke: #e5e9ed; stroke-width: 0.5; stroke-linecap: square"/>
     </g>
     <g id="line2d_7">
      <defs>
       <path id="m3efa551db4" d="M 0 0 
L -2.5 0 
" style="stroke: #58646f; stroke-width: 0.5"/>
      </defs>
      <g>
       <use xlink:href="#m3efa551db4" x="247.896" y="136.08" style="fill: #58646f; stroke: #58646f; stroke-width: 0.5"/>
      </g>
     </g>
     <g id="text_24">
      <text style="font-size: 7.3px; font-family: 'STIXGeneral', serif; text-anchor: end; fill: #58646f" x="243.396" y="138.572836" transform="rotate(-0 243.396 138.572836)">0.0</text>
     </g>
    </g>
    <g id="ytick_2">
     <g id="line2d_8">
      <path d="M 247.896 115.56 
L 389.268 115.56 
" clip-path="url(#pa7e057d6ca)" style="fill: none; stroke: #e5e9ed; stroke-width: 0.5; stroke-linecap: square"/>
     </g>
     <g id="line2d_9">
      <g>
       <use xlink:href="#m3efa551db4" x="247.896" y="115.56" style="fill: #58646f; stroke: #58646f; stroke-width: 0.5"/>
      </g>
     </g>
     <g id="text_25">
      <text style="font-size: 7.3px; font-family: 'STIXGeneral', serif; text-anchor: end; fill: #58646f" x="243.396" y="118.052836" transform="rotate(-0 243.396 118.052836)">0.5</text>
     </g>
    </g>
    <g id="ytick_3">
     <g id="line2d_10">
      <path d="M 247.896 95.04 
L 389.268 95.04 
" clip-path="url(#pa7e057d6ca)" style="fill: none; stroke: #e5e9ed; stroke-width: 0.5; stroke-linecap: square"/>
     </g>
     <g id="line2d_11">
      <g>
       <use xlink:href="#m3efa551db4" x="247.896" y="95.04" style="fill: #58646f; stroke: #58646f; stroke-width: 0.5"/>
      </g>
     </g>
     <g id="text_26">
      <text style="font-size: 7.3px; font-family: 'STIXGeneral', serif; text-anchor: end; fill: #58646f" x="243.396" y="97.532836" transform="rotate(-0 243.396 97.532836)">1.0</text>
     </g>
    </g>
    <g id="ytick_4">
     <g id="line2d_12">
      <path d="M 247.896 74.52 
L 389.268 74.52 
" clip-path="url(#pa7e057d6ca)" style="fill: none; stroke: #e5e9ed; stroke-width: 0.5; stroke-linecap: square"/>
     </g>
     <g id="line2d_13">
      <g>
       <use xlink:href="#m3efa551db4" x="247.896" y="74.52" style="fill: #58646f; stroke: #58646f; stroke-width: 0.5"/>
      </g>
     </g>
     <g id="text_27">
      <text style="font-size: 7.3px; font-family: 'STIXGeneral', serif; text-anchor: end; fill: #58646f" x="243.396" y="77.012836" transform="rotate(-0 243.396 77.012836)">1.5</text>
     </g>
    </g>
    <g id="ytick_5">
     <g id="line2d_14">
      <path d="M 247.896 54 
L 389.268 54 
" clip-path="url(#pa7e057d6ca)" style="fill: none; stroke: #e5e9ed; stroke-width: 0.5; stroke-linecap: square"/>
     </g>
     <g id="line2d_15">
      <g>
       <use xlink:href="#m3efa551db4" x="247.896" y="54" style="fill: #58646f; stroke: #58646f; stroke-width: 0.5"/>
      </g>
     </g>
     <g id="text_28">
      <text style="font-size: 7.3px; font-family: 'STIXGeneral', serif; text-anchor: end; fill: #58646f" x="243.396" y="56.492836" transform="rotate(-0 243.396 56.492836)">2.0</text>
     </g>
    </g>
    <g id="ytick_6">
     <g id="line2d_16">
      <path d="M 247.896 33.48 
L 389.268 33.48 
" clip-path="url(#pa7e057d6ca)" style="fill: none; stroke: #e5e9ed; stroke-width: 0.5; stroke-linecap: square"/>
     </g>
     <g id="line2d_17">
      <g>
       <use xlink:href="#m3efa551db4" x="247.896" y="33.48" style="fill: #58646f; stroke: #58646f; stroke-width: 0.5"/>
      </g>
     </g>
     <g id="text_29">
      <text style="font-size: 7.3px; font-family: 'STIXGeneral', serif; text-anchor: end; fill: #58646f" x="243.396" y="35.972836" transform="rotate(-0 243.396 35.972836)">2.5</text>
     </g>
    </g>
    <g id="text_30">
     <text style="font-size: 8px; font-family: 'STIXGeneral', serif; text-anchor: middle; fill: #24313c" x="228.53475" y="80.676" transform="rotate(-90 228.53475 80.676)">Cumulative tokens (millions)</text>
    </g>
   </g>
   <g id="line2d_18">
    <path d="M 247.896 136.08 
L 250.903915 135.945676 
L 253.91183 135.777453 
L 256.919745 135.525344 
L 259.92766 134.922426 
L 262.935574 134.055948 
L 265.943489 132.894147 
L 268.951404 131.711743 
L 271.959319 130.291103 
L 274.967234 128.599844 
L 277.975149 126.573946 
L 280.983064 124.470318 
L 283.990979 121.939011 
L 286.998894 119.113325 
L 290.006809 116.08564 
L 293.014723 112.796366 
L 296.022638 109.614535 
L 299.030553 105.887898 
L 302.038468 102.05862 
L 305.046383 98.164375 
L 308.054298 94.010922 
L 311.062213 89.542569 
L 314.070128 84.410722 
L 317.078043 79.264183 
L 320.085957 74.992165 
" clip-path="url(#pa7e057d6ca)" style="fill: none; stroke: #007c61; stroke-width: 1.5; stroke-linecap: square"/>
   </g>
   <g id="line2d_19">
    <path d="M 247.896 136.08 
L 250.903915 135.931353 
L 253.91183 135.784922 
L 256.919745 135.624005 
L 259.92766 135.425904 
L 262.935574 135.173098 
L 265.943489 134.606582 
L 268.951404 133.929709 
L 271.959319 133.239006 
L 274.967234 132.530615 
L 277.975149 131.799979 
L 280.983064 131.023626 
L 283.990979 130.160801 
L 286.998894 129.063884 
L 290.006809 127.891084 
L 293.014723 126.663823 
L 296.022638 125.389121 
L 299.030553 124.076826 
L 302.038468 122.746309 
L 305.046383 121.362235 
L 308.054298 119.950788 
L 311.062213 118.495673 
L 314.070128 117.018972 
L 317.078043 115.474801 
L 320.085957 113.918687 
L 323.093872 112.089986 
L 326.101787 109.905222 
L 329.109702 107.69928 
L 332.117617 105.441875 
L 335.125532 103.154921 
L 338.133447 100.786831 
L 341.141362 98.391819 
L 344.149277 95.988229 
L 347.157191 93.376033 
L 350.165106 90.275256 
L 353.173021 87.140908 
L 356.180936 83.962812 
L 359.188851 80.776138 
L 362.196766 77.320939 
L 365.204681 73.77812 
L 368.212596 70.16738 
" clip-path="url(#pa7e057d6ca)" style="fill: none; stroke-dasharray: 5.55,2.4; stroke-dashoffset: 0; stroke: #0072b2; stroke-width: 1.5"/>
   </g>
   <g id="line2d_20">
    <path d="M 247.896 136.08 
L 250.903915 135.597452 
L 253.91183 135.389994 
L 256.919745 135.121511 
L 259.92766 134.956981 
L 262.935574 134.737951 
L 265.943489 134.469714 
L 268.951404 134.143158 
L 271.959319 133.785002 
L 274.967234 133.092534 
L 277.975149 132.219326 
L 280.983064 131.029905 
L 283.990979 129.72471 
L 286.998894 128.351676 
L 290.006809 126.766464 
L 293.014723 125.083701 
L 296.022638 123.168282 
L 299.030553 120.989223 
L 302.038468 118.781517 
L 305.046383 116.472812 
L 308.054298 114.116828 
L 311.062213 111.67815 
L 314.070128 109.088443 
L 317.078043 106.477766 
L 320.085957 103.80639 
L 323.093872 101.069186 
L 326.101787 98.232132 
L 329.109702 95.346856 
L 332.117617 92.292208 
L 335.125532 89.209365 
L 338.133447 85.784126 
L 341.141362 82.347764 
L 344.149277 78.447446 
L 347.157191 74.538755 
L 350.165106 70.353168 
L 353.173021 66.154612 
L 356.180936 61.443712 
L 359.188851 56.362303 
L 362.196766 51.033095 
L 365.204681 45.656117 
L 368.212596 40.021448 
" clip-path="url(#pa7e057d6ca)" style="fill: none; stroke-dasharray: 1.5,2.475; stroke-dashoffset: 0; stroke: #d55e00; stroke-width: 1.5"/>
   </g>
   <g id="patch_5">
    <path d="M 247.896 136.08 
L 247.896 25.272 
" style="fill: none; stroke: #cad2d9; stroke-width: 0.6; stroke-linejoin: miter; stroke-linecap: square"/>
   </g>
   <g id="patch_6">
    <path d="M 247.896 136.08 
L 389.268 136.08 
" style="fill: none; stroke: #cad2d9; stroke-width: 0.6; stroke-linejoin: miter; stroke-linecap: square"/>
   </g>
   <g id="patch_7">
    <path d="M 275.946884 95.283773 
Q 286.579968 100.168376 297.213052 105.052978 
" style="fill: none; stroke: #007c61; stroke-width: 0.65; stroke-linecap: round"/>
   </g>
   <g id="text_31">
    <g id="patch_8">
     <path d="M 253.19183 94.449825 
L 277.830455 94.449825 
L 277.830455 86.529825 
L 253.19183 86.529825 
z
" style="fill: #ffffff"/>
    </g>
    <text style="font-size: 7.2px; font-family: 'STIXGeneral', serif; text-anchor: start; fill: #007c61" x="253.91183" y="92.1672" transform="rotate(-0 253.91183 92.1672)">17  Test</text>
   </g>
   <g id="patch_9">
    <path d="M 288.921514 64.498855 
Q 300.711462 73.833758 312.501409 83.168661 
" style="fill: none; stroke: #007c61; stroke-width: 0.65; stroke-linecap: round"/>
   </g>
   <g id="text_32">
    <g id="patch_10">
     <path d="M 268.231404 63.259425 
L 296.477904 63.259425 
L 296.477904 55.339425 
L 268.231404 55.339425 
z
" style="fill: #ffffff"/>
    </g>
    <text style="font-size: 7.2px; font-family: 'STIXGeneral', serif; text-anchor: start; fill: #007c61" x="268.951404" y="60.9768" transform="rotate(-0 268.951404 60.9768)">22  Patch</text>
   </g>
   <g id="patch_11">
    <path d="M 346.644078 115.755267 
Q 332.489952 98.285918 318.335826 80.816569 
" style="fill: none; stroke: #007c61; stroke-width: 0.65; stroke-linecap: round"/>
   </g>
   <g id="text_33">
    <g id="patch_12">
     <path d="M 331.397617 125.229825 
L 370.826617 125.229825 
L 370.826617 117.309825 
L 331.397617 117.309825 
z
" style="fill: #ffffff"/>
    </g>
    <text style="font-size: 7.2px; font-family: 'STIXGeneral', serif; text-anchor: start; fill: #007c61" x="332.117617" y="122.9472" transform="rotate(-0 332.117617 122.9472)">23  Accepted</text>
   </g>
   <g id="patch_13">
    <path d="M 332.542287 56.416977 
Q 326.871403 64.87354 321.200519 73.330103 
" style="fill: none; stroke: #007c61; stroke-width: 0.65; stroke-linecap: round"/>
   </g>
   <g id="text_34">
    <text style="font-size: 7.5px; font-family: 'STIXGeneral', serif; text-anchor: start; fill: #007c61" x="323.093872" y="51.1272" transform="rotate(-0 323.093872 51.1272)">24: 1.488</text>
   </g>
   <g id="text_35">
    <text style="font-size: 7.5px; font-family: 'STIXGeneral', serif; text-anchor: start; fill: #d55e00" x="371.220511" y="41.752626" transform="rotate(-0 371.220511 41.752626)">2.341</text>
   </g>
   <g id="text_36">
    <text style="font-size: 7.5px; font-family: 'STIXGeneral', serif; text-anchor: start; fill: #0072b2" x="371.220511" y="71.917026" transform="rotate(-0 371.220511 71.917026)">1.606</text>
   </g>
   <g id="PathCollection_1">
    <defs>
     <path id="m891d9a6602" d="M 0 2.44949 
C 0.649612 2.44949 1.272706 2.191396 1.732051 1.732051 
C 2.191396 1.272706 2.44949 0.649612 2.44949 0 
C 2.44949 -0.649612 2.191396 -1.272706 1.732051 -1.732051 
C 1.272706 -2.191396 0.649612 -2.44949 0 -2.44949 
C -0.649612 -2.44949 -1.272706 -2.191396 -1.732051 -1.732051 
C -2.191396 -1.272706 -2.44949 -0.649612 -2.44949 0 
C -2.44949 0.649612 -2.191396 1.272706 -1.732051 1.732051 
C -1.272706 2.191396 -0.649612 2.44949 0 2.44949 
z
" style="stroke: #007c61; stroke-width: 1.1"/>
    </defs>
    <g clip-path="url(#pa7e057d6ca)">
     <use xlink:href="#m891d9a6602" x="320.085957" y="74.992165" style="fill: #007c61; stroke: #007c61; stroke-width: 1.1"/>
    </g>
   </g>
   <g id="PathCollection_2">
    <defs>
     <path id="m7fd6e1e1a1" d="M -2.44949 2.44949 
L 2.44949 -2.44949 
M -2.44949 -2.44949 
L 2.44949 2.44949 
" style="stroke: #0072b2; stroke-width: 1.1"/>
    </defs>
    <g clip-path="url(#pa7e057d6ca)">
     <use xlink:href="#m7fd6e1e1a1" x="368.212596" y="70.16738" style="fill: #0072b2; stroke: #0072b2; stroke-width: 1.1"/>
    </g>
   </g>
   <g id="PathCollection_3">
    <defs>
     <path id="mbac08861f2" d="M -2.44949 2.44949 
L 2.44949 -2.44949 
M -2.44949 -2.44949 
L 2.44949 2.44949 
" style="stroke: #d55e00; stroke-width: 1.1"/>
    </defs>
    <g clip-path="url(#pa7e057d6ca)">
     <use xlink:href="#mbac08861f2" x="368.212596" y="40.021448" style="fill: #d55e00; stroke: #d55e00; stroke-width: 1.1"/>
    </g>
   </g>
   <g id="PathCollection_4">
    <defs>
     <path id="mbce156f044" d="M 0 2.12132 
C 0.562581 2.12132 1.102195 1.897805 1.5 1.5 
C 1.897805 1.102195 2.12132 0.562581 2.12132 0 
C 2.12132 -0.562581 1.897805 -1.102195 1.5 -1.5 
C 1.102195 -1.897805 0.562581 -2.12132 0 -2.12132 
C -0.562581 -2.12132 -1.102195 -1.897805 -1.5 -1.5 
C -1.897805 -1.102195 -2.12132 -0.562581 -2.12132 0 
C -2.12132 0.562581 -1.897805 1.102195 -1.5 1.5 
C -1.102195 1.897805 -0.562581 2.12132 0 2.12132 
z
" style="stroke: #007c61; stroke-width: 0.9"/>
    </defs>
    <g clip-path="url(#pa7e057d6ca)">
     <use xlink:href="#mbce156f044" x="299.030553" y="105.887898" style="fill: #ffffff; stroke: #007c61; stroke-width: 0.9"/>
    </g>
   </g>
   <g id="PathCollection_5">
    <g clip-path="url(#pa7e057d6ca)">
     <use xlink:href="#mbce156f044" x="314.070128" y="84.410722" style="fill: #ffffff; stroke: #007c61; stroke-width: 0.9"/>
    </g>
   </g>
   <g id="PathCollection_6">
    <g clip-path="url(#pa7e057d6ca)">
     <use xlink:href="#mbce156f044" x="317.078043" y="79.264183" style="fill: #ffffff; stroke: #007c61; stroke-width: 0.9"/>
    </g>
   </g>
  </g>
  <g id="text_37">
   <text style="font-weight: 700; font-size: 9px; font-family: 'STIXGeneral', serif; text-anchor: start; fill: #24313c" x="232.848" y="10.134563" transform="rotate(-0 232.848 10.134563)">(b) Repair process and cost</text>
  </g>
  <g id="text_38">
   <text style="font-size: 7.5px; font-family: 'STIXGeneral', serif; text-anchor: start; fill: #24313c" x="235.62" y="164.6568" transform="rotate(-0 235.62 164.6568)">Accepted: public test passes</text>
  </g>
  <g id="text_39">
   <text style="font-size: 7.5px; font-family: 'STIXGeneral', serif; text-anchor: start; fill: #24313c" x="235.62" y="172.8216" transform="rotate(-0 235.62 172.8216)">24 calls: final report completed</text>
  </g>
  <g id="text_40">
   <text style="font-size: 7.5px; font-family: 'STIXGeneral', serif; text-anchor: start; fill: #58646f" x="235.62" y="181.5696" transform="rotate(-0 235.62 181.5696)">×  Unrepaired at the 40-call limit</text>
  </g>
  <g id="legend_1">
   <g id="line2d_21">
    <path d="M 232.56 17.064 
L 238.32 17.064 
L 244.08 17.064 
" style="fill: none; stroke: #007c61; stroke-width: 1.5; stroke-linecap: square"/>
   </g>
   <g id="text_41">
    <text style="font-size: 7.2px; font-family: 'STIXGeneral', serif; text-anchor: start; fill: #24313c" x="246.96" y="19.584" transform="rotate(-0 246.96 19.584)">LaDiM</text>
   </g>
   <g id="line2d_22">
    <path d="M 232.56 27.266625 
L 238.32 27.266625 
L 244.08 27.266625 
" style="fill: none; stroke-dasharray: 5.55,2.4; stroke-dashoffset: 0; stroke: #0072b2; stroke-width: 1.5"/>
   </g>
   <g id="text_42">
    <text style="font-size: 7.2px; font-family: 'STIXGeneral', serif; text-anchor: start; fill: #24313c" x="246.96" y="29.786625" transform="rotate(-0 246.96 29.786625)">SWE-agent</text>
   </g>
   <g id="line2d_23">
    <path d="M 285.192 17.064 
L 290.952 17.064 
L 296.712 17.064 
" style="fill: none; stroke-dasharray: 1.5,2.475; stroke-dashoffset: 0; stroke: #d55e00; stroke-width: 1.5"/>
   </g>
   <g id="text_43">
    <text style="font-size: 7.2px; font-family: 'STIXGeneral', serif; text-anchor: start; fill: #24313c" x="299.592" y="19.584" transform="rotate(-0 299.592 19.584)">MatchFixAgent</text>
   </g>
  </g>
 </g>
 <defs>
  <clipPath id="pa7e057d6ca">
   <rect x="247.896" y="25.272" width="141.372" height="110.808"/>
  </clipPath>
 </defs>
</svg>
