<svg width="52" height="30" xmlns="http://www.w3.org/2000/svg" xmlns:xlink="http://www.w3.org/1999/xlink" xml:space="preserve" overflow="hidden"><g transform="translate(-1508 -135)"><path d="M5.8046 14.9885 2.93103 19.9667 8.67816 19.9667 11.5517 14.9885 5.8046 14.9885Z" stroke="#DCE0DF" stroke-width="0.114943" stroke-linejoin="round" fill="#5E97F6" transform="matrix(1.0031 0 0 1 1508 135.011)"/><path d="M0.0574713 24.9437 2.93103 19.9667 8.67816 19.9667 5.8046 24.9437 0.0574713 24.9437Z" stroke="#DCE0DF" stroke-width="0.114943" stroke-linejoin="round" fill="#5E97F6" transform="matrix(1.0031 0 0 1 1508 135.011)"/><path d="M14.4253 19.9667 8.67816 19.9667 5.8046 24.9437 11.5517 24.9437 14.4253 19.9667Z" stroke="#DCE0DF" stroke-width="0.114943" stroke-linejoin="round" fill="#5E97F6" transform="matrix(1.0031 0 0 1 1508 135.011)"/><path d="M20.1724 19.9667 14.4253 19.9667 11.5517 24.9437 17.2989 24.9437 20.1724 19.9667Z" stroke="#DCE0DF" stroke-width="0.114943" stroke-linejoin="round" fill="#5E97F6" transform="matrix(1.0031 0 0 1 1508 135.011)"/><path d="M17.2989 14.9885 14.4253 19.9667 20.1724 19.9667 23.046 14.9885 17.2989 14.9885Z" stroke="#DCE0DF" stroke-width="0.114943" stroke-linejoin="round" fill="#5E97F6" transform="matrix(1.0031 0 0 1 1508 135.011)"/><path d="M20.1724 10.0115 17.2989 14.9885 23.046 14.9885 25.9195 10.0115 20.1724 10.0115Z" stroke="#DCE0DF" stroke-width="0.114943" stroke-linejoin="round" fill="#5E97F6" transform="matrix(1.0031 0 0 1 1508 135.011)"/><path d="M23.046 5.03448 20.1724 10.0115 25.9195 10.0115 28.7931 5.03448 23.046 5.03448Z" stroke="#DCE0DF" stroke-width="0.114943" stroke-linejoin="round" fill="#5E97F6" transform="matrix(1.0031 0 0 1 1508 135.011)"/><path d="M25.9195 0.0574713 23.046 5.03448 28.7931 5.03448 31.6667 0.0574713 25.9195 0.0574713Z" stroke="#DCE0DF" stroke-width="0.114943" stroke-linejoin="round" fill="#5E97F6" transform="matrix(1.0031 0 0 1 1508 135.011)"/><path d="M0.0574713 24.9437 2.93103 29.9207 8.67816 29.9207 5.8046 24.9437 0.0574713 24.9437Z" stroke="#DCE0DF" stroke-width="0.114943" stroke-linejoin="round" fill="#2A56C6" transform="matrix(1.0031 0 0 1 1508 135.011)"/><path d="M14.4253 29.9207 8.67816 29.9207 5.8046 24.9437 11.5517 24.9437 14.4253 29.9207Z" stroke="#DCE0DF" stroke-width="0.114943" stroke-linejoin="round" fill="#2A56C6" transform="matrix(1.0031 0 0 1 1508 135.011)"/><path d="M20.1724 29.9207 14.4253 29.9207 11.5517 24.9437 17.2989 24.9437 20.1724 29.9207Z" stroke="#DCE0DF" stroke-width="0.114943" stroke-linejoin="round" fill="#2A56C6" transform="matrix(1.0031 0 0 1 1508 135.011)"/><path d="M23.046 24.9437 20.1724 19.9667 17.2989 24.9437 20.1724 29.9207 23.046 24.9437Z" stroke="#DCE0DF" stroke-width="0.114943" stroke-linejoin="round" fill="#00796B" transform="matrix(1.0031 0 0 1 1508 135.011)"/><path d="M28.7931 14.9885 25.9195 10.0115 23.046 14.9885 28.7931 14.9885Z" stroke="#DCE0DF" stroke-width="0.114943" stroke-linejoin="round" fill="#00796B" transform="matrix(1.0031 0 0 1 1508 135.011)"/><path d="M28.7931 5.03448 25.9195 10.0115 28.7931 14.9885 31.6667 10.0115 28.7931 5.03448Z" stroke="#DCE0DF" stroke-width="0.114943" stroke-linejoin="round" fill="#00796B" transform="matrix(1.0031 0 0 1 1508 135.011)"/><path d="M14.4253 19.9667 11.5517 14.9885 8.67816 19.9667 14.4253 19.9667Z" stroke="#DCE0DF" stroke-width="0.114943" stroke-linejoin="round" fill="#3367D6" transform="matrix(1.0031 0 0 1 1508 135.011)"/><path d="M28.7931 14.9885 23.046 14.9885 20.1724 19.9667 25.9195 19.9667 28.7931 14.9885Z" stroke="#DCE0DF" stroke-width="0.114943" stroke-linejoin="round" fill="#26A69A" transform="matrix(1.0031 0 0 1 1508 135.011)"/><path d="M34.5402 14.9885 28.7931 14.9885 25.9195 19.9667 31.6667 19.9667 34.5402 14.9885Z" stroke="#DCE0DF" stroke-width="0.114943" stroke-linejoin="round" fill="#26A69A" transform="matrix(1.0031 0 0 1 1508 135.011)"/><path d="M40.2874 5.03448 37.4138 0.0574713 34.5402 5.03448 37.4138 10.0115 40.2874 5.03448Z" stroke="#DCE0DF" stroke-width="0.114943" stroke-linejoin="round" fill="#9C27B0" transform="matrix(1.0031 0 0 1 1508 135.011)"/><path d="M43.1609 10.0115 40.2874 5.03448 37.4138 10.0115 40.2874 14.9885 43.1609 10.0115Z" stroke="#DCE0DF" stroke-width="0.114943" stroke-linejoin="round" fill="#9C27B0" transform="matrix(1.0031 0 0 1 1508 135.011)"/><path d="M46.0345 14.9885 43.1609 10.0115 40.2874 14.9885 43.1609 19.9667 46.0345 14.9885Z" stroke="#DCE0DF" stroke-width="0.114943" stroke-linejoin="round" fill="#9C27B0" transform="matrix(1.0031 0 0 1 1508 135.011)"/><path d="M48.908 19.9667 46.0345 14.9885 43.1609 19.9667 46.0345 24.9437 48.908 19.9667Z" stroke="#DCE0DF" stroke-width="0.114943" stroke-linejoin="round" fill="#9C27B0" transform="matrix(1.0031 0 0 1 1508 135.011)"/><path d="M51.7816 24.9437 48.908 19.9667 46.0345 24.9437 48.908 29.9207 51.7816 24.9437Z" stroke="#DCE0DF" stroke-width="0.114943" stroke-linejoin="round" fill="#9C27B0" transform="matrix(1.0031 0 0 1 1508 135.011)"/><path d="M48.908 0.0574713 46.0345 5.03448 48.908 10.0115 51.7816 5.03448 48.908 0.0574713Z" stroke="#DCE0DF" stroke-width="0.114943" stroke-linejoin="round" fill="#9C27B0" transform="matrix(1.0031 0 0 1 1508 135.011)"/><path d="M43.1609 10.0115 46.0345 5.03448 48.908 10.0115 46.0345 14.9885 43.1609 10.0115Z" stroke="#DCE0DF" stroke-width="0.114943" stroke-linejoin="round" fill="#9C27B0" transform="matrix(1.0031 0 0 1 1508 135.011)"/><path d="M40.2874 14.9885 37.4138 19.9667 40.2874 24.9437 43.1609 19.9667 40.2874 14.9885Z" stroke="#DCE0DF" stroke-width="0.114943" stroke-linejoin="round" fill="#9C27B0" transform="matrix(1.0031 0 0 1 1508 135.011)"/><path d="M37.4138 29.9207 34.5402 24.9437 37.4138 19.9667 40.2874 24.9437 37.4138 29.9207Z" stroke="#DCE0DF" stroke-width="0.114943" stroke-linejoin="round" fill="#9C27B0" transform="matrix(1.0031 0 0 1 1508 135.011)"/><path d="M31.6667 29.9207 28.7931 24.9437 34.5402 24.9437 37.4138 29.9207 31.6667 29.9207Z" stroke="#DCE0DF" stroke-width="0.114943" stroke-linejoin="round" fill="#6A1B9A" transform="matrix(1.0031 0 0 1 1508 135.011)"/><path d="M25.9195 19.9667 20.1724 19.9667 23.046 24.9437 28.7931 24.9437 25.9195 19.9667Z" stroke="#DCE0DF" stroke-width="0.114943" stroke-linejoin="round" fill="#00695C" transform="matrix(1.0031 0 0 1 1508 135.011)"/><path d="M31.6667 19.9667 25.9195 19.9667 28.7931 24.9437 31.6667 19.9667Z" stroke="#DCE0DF" stroke-width="0.114943" stroke-linejoin="round" fill="#00695C" transform="matrix(1.0031 0 0 1 1508 135.011)"/><path d="M31.6667 10.0115 34.5402 14.9885 40.2874 14.9885 37.4138 10.0115 31.6667 10.0115Z" stroke="#DCE0DF" stroke-width="0.114943" stroke-linejoin="round" fill="#00695C" transform="matrix(1.0031 0 0 1 1508 135.011)"/><path d="M34.5402 5.03448 28.7931 5.03448 31.6667 10.0115 37.4138 10.0115 34.5402 5.03448Z" stroke="#DCE0DF" stroke-width="0.114943" stroke-linejoin="round" fill="#00695C" transform="matrix(1.0031 0 0 1 1508 135.011)"/><path d="M48.908 29.9207 46.0345 24.9437 40.2874 24.9437 43.1609 29.9207 48.908 29.9207Z" stroke="#DCE0DF" stroke-width="0.114943" stroke-linejoin="round" fill="#00695C" transform="matrix(1.0031 0 0 1 1508 135.011)"/><path d="M43.1609 19.9667 40.2874 24.9437 46.0345 24.9437 43.1609 19.9667Z" stroke="#DCE0DF" stroke-width="0.114943" stroke-linejoin="round" fill="#00695C" transform="matrix(1.0031 0 0 1 1508 135.011)"/><path d="M37.4138 0.0574713 31.6667 0.0574713 28.7931 5.03448 34.5402 5.03448 37.4138 0.0574713Z" stroke="#DCE0DF" stroke-width="0.114943" stroke-linejoin="round" fill="#EA80FC" transform="matrix(1.0031 0 0 1 1508 135.011)"/><path d="M37.4138 19.9667 31.6667 19.9667 28.7931 24.9437 34.5402 24.9437 37.4138 19.9667Z" stroke="#DCE0DF" stroke-width="0.114943" stroke-linejoin="round" fill="#EA80FC" transform="matrix(1.0031 0 0 1 1508 135.011)"/><path d="M40.2874 14.9885 34.5402 14.9885 31.6667 19.9667 37.4138 19.9667 40.2874 14.9885Z" stroke="#DCE0DF" stroke-width="0.114943" stroke-linejoin="round" fill="#EA80FC" transform="matrix(1.0031 0 0 1 1508 135.011)"/><path d="M48.908 0.0574713 43.1609 0.0574713 40.2874 5.03448 46.0345 5.03448 48.908 0.0574713Z" stroke="#DCE0DF" stroke-width="0.114943" stroke-linejoin="round" fill="#EA80FC" transform="matrix(1.0031 0 0 1 1508 135.011)"/><path d="M43.1609 10.0115 40.2874 5.03448 46.0345 5.03448 43.1609 10.0115Z" stroke="#DCE0DF" stroke-width="0.114943" stroke-linejoin="round" fill="#EA80FC" transform="matrix(1.0031 0 0 1 1508 135.011)"/></g></svg>