<svg xmlns="http://www.w3.org/2000/svg" width="26" height="30" viewBox="182 442 30 34"><defs><linearGradient id="gradient-0" x1="50%" y1="0%" x2="50%" y2="100%"><stop offset="0%" stop-color="#FFEEE2"/><stop offset="100%" stop-color="#FFF8F1"/></linearGradient>
<linearGradient id="gradient-1" x1="50%" y1="0%" x2="50%" y2="100%"><stop offset="0%" stop-color="#FFCFB0"/><stop offset="100%" stop-color="#FFE6D3"/></linearGradient>
<linearGradient id="gradient-2" x1="50%" y1="0%" x2="50%" y2="100%"><stop offset="0%" stop-color="#EAFEF5"/><stop offset="100%" stop-color="#F3FFF8"/></linearGradient>
<linearGradient id="gradient-3" x1="50%" y1="0%" x2="50%" y2="100%"><stop offset="0%" stop-color="#C0EAD9"/><stop offset="100%" stop-color="#D1EFE1"/></linearGradient>
<linearGradient id="gradient-4" x1="50%" y1="0%" x2="50%" y2="100%"><stop offset="0%" stop-color="#DDEAFF"/><stop offset="100%" stop-color="#F1F7FF"/></linearGradient>
<linearGradient id="gradient-5" x1="50%" y1="0%" x2="50%" y2="100%"><stop offset="0%" stop-color="#C0D8FC"/><stop offset="100%" stop-color="#DAE8FF"/></linearGradient>
<linearGradient id="gradient-6" x1="50%" y1="0%" x2="50%" y2="100%"><stop offset="0%" stop-color="#FFF2E3"/><stop offset="100%" stop-color="#FFF8EE"/></linearGradient>
<linearGradient id="gradient-7" x1="50%" y1="0%" x2="50%" y2="100%"><stop offset="0%" stop-color="#A4C3DC"/><stop offset="100%" stop-color="#87ACDF"/></linearGradient>
<linearGradient id="gradient-8" x1="50%" y1="0%" x2="50%" y2="100%"><stop offset="0%" stop-color="#A4C3DC"/><stop offset="100%" stop-color="#9DBDE5"/></linearGradient>
<linearGradient id="gradient-9" x1="50%" y1="0%" x2="50%" y2="100%"><stop offset="0%" stop-color="#EDE9FF"/><stop offset="100%" stop-color="#FAF7FF"/></linearGradient>
<linearGradient id="gradient-10" x1="50%" y1="0%" x2="50%" y2="100%"><stop offset="0%" stop-color="#FFF0E0"/><stop offset="100%" stop-color="#FFFCF6"/></linearGradient>
<linearGradient id="gradient-11" x1="50%" y1="0%" x2="50%" y2="100%"><stop offset="0%" stop-color="#E7FFF1"/><stop offset="100%" stop-color="#F7FFFB"/></linearGradient>
<linearGradient id="gradient-12" x1="50%" y1="0%" x2="50%" y2="100%"><stop offset="0%" stop-color="#FFF0E0"/><stop offset="100%" stop-color="#FFF8EF"/></linearGradient>
<linearGradient id="gradient-13" x1="50%" y1="0%" x2="50%" y2="100%"><stop offset="0%" stop-color="#A4C3DC"/><stop offset="100%" stop-color="#87ACDF"/></linearGradient>
<linearGradient id="gradient-14" x1="50%" y1="0%" x2="50%" y2="100%"><stop offset="0%" stop-color="#A4C3DC"/><stop offset="100%" stop-color="#9DBDE5"/></linearGradient>
<linearGradient id="gradient-15" x1="50%" y1="0%" x2="50%" y2="100%"><stop offset="0%" stop-color="#FF3346"/><stop offset="100%" stop-color="#E70020"/></linearGradient>
<linearGradient id="gradient-16" x1="50%" y1="0%" x2="50%" y2="100%"><stop offset="0%" stop-color="#FFE0B8"/><stop offset="100%" stop-color="#FFF2D8"/></linearGradient>
<linearGradient id="gradient-17" x1="50%" y1="0%" x2="50%" y2="100%"><stop offset="0%" stop-color="#97DEA7"/><stop offset="100%" stop-color="#D8F7D9"/></linearGradient>
<linearGradient id="gradient-18" x1="50%" y1="0%" x2="50%" y2="100%"><stop offset="0%" stop-color="#F8FCFF"/><stop offset="100%" stop-color="#E4F4FF"/></linearGradient>
<linearGradient id="gradient-19" x1="50%" y1="0%" x2="50%" y2="100%"><stop offset="0%" stop-color="#FFFFFF"/><stop offset="100%" stop-color="#C7DDF5"/></linearGradient>
<linearGradient id="gradient-20" x1="50%" y1="0%" x2="50%" y2="100%"><stop offset="0%" stop-color="#FFFFFF"/><stop offset="100%" stop-color="#F6FCFA"/></linearGradient>
<linearGradient id="gradient-21" x1="50%" y1="0%" x2="50%" y2="100%"><stop offset="0%" stop-color="#FFF6DD"/><stop offset="100%" stop-color="#FFFCEE"/></linearGradient>
<linearGradient id="gradient-22" x1="50%" y1="0%" x2="50%" y2="100%"><stop offset="0%" stop-color="#FFFFFF"/><stop offset="100%" stop-color="#FFE04B"/></linearGradient>
<linearGradient id="gradient-23" x1="50%" y1="0%" x2="50%" y2="100%"><stop offset="0%" stop-color="#E9F7FF"/><stop offset="100%" stop-color="#F1FCFF"/></linearGradient>
<linearGradient id="gradient-24" x1="50%" y1="0%" x2="50%" y2="100%"><stop offset="0%" stop-color="#FFFFFF"/><stop offset="100%" stop-color="#65CDFF"/></linearGradient>
<linearGradient id="gradient-25" x1="50%" y1="0%" x2="50%" y2="100%"><stop offset="0%" stop-color="#F1EAFF"/><stop offset="100%" stop-color="#FBF7FF"/></linearGradient>
<linearGradient id="gradient-26" x1="50%" y1="0%" x2="50%" y2="100%"><stop offset="0%" stop-color="#FFFFFF"/><stop offset="100%" stop-color="#CBA5FF"/></linearGradient>
<linearGradient id="gradient-27" x1="50%" y1="0%" x2="50%" y2="100%"><stop offset="0%" stop-color="#A1DCAB"/><stop offset="100%" stop-color="#D4F8D7"/></linearGradient>
<linearGradient id="gradient-28" x1="50%" y1="0%" x2="50%" y2="100%"><stop offset="0%" stop-color="#EEF3F7"/><stop offset="100%" stop-color="#FFFFFF"/></linearGradient>
<linearGradient id="gradient-29" x1="50%" y1="0%" x2="50%" y2="100%"><stop offset="0%" stop-color="#FFFFFF"/><stop offset="100%" stop-color="#F5F7FD"/></linearGradient>
<linearGradient id="gradient-30" x1="50%" y1="0%" x2="50%" y2="100%"><stop offset="0%" stop-color="#FFFFFF"/><stop offset="100%" stop-color="#F5F7FD"/></linearGradient>
<linearGradient id="gradient-31" x1="50%" y1="0%" x2="50%" y2="100%"><stop offset="0%" stop-color="#FFFFFF"/><stop offset="100%" stop-color="#F5F7FD"/></linearGradient>
<linearGradient id="gradient-32" x1="50%" y1="0%" x2="50%" y2="100%"><stop offset="0%" stop-color="#FFFFFF"/><stop offset="100%" stop-color="#F5F7FD"/></linearGradient>
<linearGradient id="gradient-33" x1="50%" y1="0%" x2="50%" y2="100%"><stop offset="0%" stop-color="#FFFFFF"/><stop offset="100%" stop-color="#F5F7FD"/></linearGradient>
<linearGradient id="gradient-34" x1="50%" y1="0%" x2="50%" y2="100%"><stop offset="0%" stop-color="#62BE76"/><stop offset="100%" stop-color="#C7EEC7"/></linearGradient>
<linearGradient id="gradient-35" x1="50%" y1="0%" x2="50%" y2="100%"><stop offset="0%" stop-color="#B9ECC3"/><stop offset="100%" stop-color="#DDF9DC"/></linearGradient>
<linearGradient id="gradient-36" x1="50%" y1="0%" x2="50%" y2="100%"><stop offset="0%" stop-color="#66C37E"/><stop offset="100%" stop-color="#CDEFD0"/></linearGradient>
<linearGradient id="gradient-37" x1="50%" y1="0%" x2="50%" y2="100%"><stop offset="0%" stop-color="#EEF7FE"/><stop offset="100%" stop-color="#FFFFFF"/></linearGradient>
<linearGradient id="gradient-38" x1="50%" y1="0%" x2="50%" y2="100%"><stop offset="0%" stop-color="#81C9FA"/><stop offset="100%" stop-color="#87ACDF"/></linearGradient>
<linearGradient id="gradient-39" x1="50%" y1="0%" x2="50%" y2="100%"><stop offset="0%" stop-color="#81C9FA"/><stop offset="100%" stop-color="#9DBDE5"/></linearGradient>
<linearGradient id="gradient-40" x1="50%" y1="0%" x2="50%" y2="100%"><stop offset="0%" stop-color="#6CC9FF"/><stop offset="100%" stop-color="#87ACDF"/></linearGradient>
<linearGradient id="gradient-41" x1="50%" y1="0%" x2="50%" y2="100%"><stop offset="0%" stop-color="#6CC9FF"/><stop offset="100%" stop-color="#9DBDE5"/></linearGradient>
<linearGradient id="gradient-42" x1="50%" y1="0%" x2="50%" y2="100%"><stop offset="0%" stop-color="#64C1FA"/><stop offset="100%" stop-color="#87ACDF"/></linearGradient>
<linearGradient id="gradient-43" x1="50%" y1="0%" x2="50%" y2="100%"><stop offset="0%" stop-color="#64C1FA"/><stop offset="100%" stop-color="#9DBDE5"/></linearGradient>
<linearGradient id="gradient-44" x1="50%" y1="0%" x2="50%" y2="100%"><stop offset="0%" stop-color="#27B35B"/><stop offset="100%" stop-color="#0C974A"/></linearGradient>
<linearGradient id="gradient-45" x1="50%" y1="0%" x2="50%" y2="100%"><stop offset="0%" stop-color="#27B35B"/><stop offset="100%" stop-color="#0C974A"/></linearGradient>
<linearGradient id="gradient-46" x1="50%" y1="0%" x2="50%" y2="100%"><stop offset="0%" stop-color="#27B35B"/><stop offset="100%" stop-color="#0C974A"/></linearGradient>
<linearGradient id="gradient-47" x1="50%" y1="0%" x2="50%" y2="100%"><stop offset="0%" stop-color="#27B35B"/><stop offset="100%" stop-color="#0C974A"/></linearGradient>
<linearGradient id="gradient-48" x1="50%" y1="0%" x2="50%" y2="100%"><stop offset="0%" stop-color="#27B35B"/><stop offset="100%" stop-color="#0C974A"/></linearGradient>
<linearGradient id="gradient-49" x1="50%" y1="0%" x2="50%" y2="100%"><stop offset="0%" stop-color="#27B35B"/><stop offset="100%" stop-color="#0C974A"/></linearGradient>
<linearGradient id="gradient-50" x1="50%" y1="0%" x2="50%" y2="100%"><stop offset="0%" stop-color="#E5FFF0"/><stop offset="100%" stop-color="#F3FFF8"/></linearGradient>
<linearGradient id="gradient-51" x1="50%" y1="0%" x2="50%" y2="100%"><stop offset="0%" stop-color="#27B35B"/><stop offset="100%" stop-color="#0C974A"/></linearGradient>
<linearGradient id="gradient-52" x1="50%" y1="0%" x2="50%" y2="100%"><stop offset="0%" stop-color="#27B35B"/><stop offset="100%" stop-color="#0C974A"/></linearGradient>
<linearGradient id="gradient-53" x1="50%" y1="0%" x2="50%" y2="100%"><stop offset="0%" stop-color="#27B35B"/><stop offset="100%" stop-color="#0C974A"/></linearGradient>
<linearGradient id="gradient-54" x1="50%" y1="0%" x2="50%" y2="100%"><stop offset="0%" stop-color="#27B35B"/><stop offset="100%" stop-color="#0C974A"/></linearGradient>
<linearGradient id="gradient-55" x1="50%" y1="0%" x2="50%" y2="100%"><stop offset="0%" stop-color="#FAFCFE"/><stop offset="100%" stop-color="#EFF3F7"/></linearGradient>
<linearGradient id="gradient-56" x1="50%" y1="0%" x2="50%" y2="100%"><stop offset="0%" stop-color="#78BDF4"/><stop offset="100%" stop-color="#87ACDF"/></linearGradient>
<linearGradient id="gradient-57" x1="50%" y1="0%" x2="50%" y2="100%"><stop offset="0%" stop-color="#78BDF4"/><stop offset="100%" stop-color="#9DBDE5"/></linearGradient></defs><g id="icon-flame-90">
<polygon points="198.3,444.75 195.7,452.25 196.35,457.5 191.8,453.75 189.2,460.5 189.85,465.75 193.75,471.75 201.55,471.75 206.1,465.75 205.45,459 202.2,451.5 202.2,459 199.6,454.5" fill="#FF650B" stroke="#F75709" stroke-width="0.65" stroke-linejoin="round" stroke-linecap="round"/>
<polygon points="197,459 193.75,465.75 195.05,470.25 198.95,471.75 202.2,468 200.25,462.75 199.6,466.5" fill="#FFFFFF" stroke="#FFFFFF" stroke-width="0.325" stroke-linejoin="round" stroke-linecap="round"/>
</g></svg>