<?xml version="1.0" encoding="utf-8" standalone="no"?>
<!DOCTYPE svg PUBLIC "-//W3C//DTD SVG 1.1//EN"
  "http://www.w3.org/Graphics/SVG/1.1/DTD/svg11.dtd">
<svg xmlns:xlink="http://www.w3.org/1999/xlink" width="383.765pt" height="153.506219pt" viewBox="0 0 383.765 153.506219" xmlns="http://www.w3.org/2000/svg" version="1.1">
 <metadata>
  <rdf:RDF xmlns:dc="http://purl.org/dc/elements/1.1/" xmlns:cc="http://creativecommons.org/ns#" xmlns:rdf="http://www.w3.org/1999/02/22-rdf-syntax-ns#">
   <cc:Work>
    <dc:type rdf:resource="http://purl.org/dc/dcmitype/StillImage"/>
    <dc:date>2026-09-22T19:41:19.194866</dc:date>
    <dc:format>image/svg+xml</dc:format>
    <dc:creator>
     <cc:Agent>
      <dc:title>Matplotlib v3.10.8, https://matplotlib.org/</dc:title>
     </cc:Agent>
    </dc:creator>
   </cc:Work>
  </rdf:RDF>
 </metadata>
 <defs>
  <style type="text/css">*{stroke-linejoin: round; stroke-linecap: butt}</style>
 </defs>
 <g id="figure_1">
  <g id="patch_1">
   <path d="M 0 153.506219
L 383.765 153.506219
L 383.765 0
L 0 0
z
" style="fill: #ffffff"/>
  </g>
  <g id="axes_1">
   <g id="patch_2">
    <path d="M 57.605 128.158719
L 163.722647 128.158719
L 163.722647 15.586719
L 57.605 15.586719
z
" style="fill: #ffffff"/>
   </g>
   <g id="matplotlib.axis_1">
    <g id="xtick_1">
     <g id="line2d_1">
      <path d="M 57.605 128.158719
L 57.605 15.586719
" clip-path="url(#p90a593d77a)" style="fill: none; stroke: #e9ecef; stroke-width: 0.45; stroke-linecap: square"/>
     </g>
     <g id="line2d_2">
      <defs>
       <path id="m623a29323d" d="M 0 0
L 0 2
" style="stroke: #92989e; stroke-width: 0.8"/>
      </defs>
      <g>
       <use xlink:href="#m623a29323d" x="57.605" y="128.158719" style="fill: #92989e; stroke: #92989e; stroke-width: 0.8"/>
      </g>
     </g>
     <g id="text_1">
      <text style="font-size: 8px; font-family: 'STIXGeneral', serif; text-anchor: middle" x="57.605" y="139.122469" transform="rotate(-0 57.605 139.122469)">0</text>
     </g>
    </g>
    <g id="xtick_2">
     <g id="line2d_3">
      <path d="M 101.820686 128.158719
L 101.820686 15.586719
" clip-path="url(#p90a593d77a)" style="fill: none; stroke: #e9ecef; stroke-width: 0.45; stroke-linecap: square"/>
     </g>
     <g id="line2d_4">
      <g>
       <use xlink:href="#m623a29323d" x="101.820686" y="128.158719" style="fill: #92989e; stroke: #92989e; stroke-width: 0.8"/>
      </g>
     </g>
     <g id="text_2">
      <text style="font-size: 8px; font-family: 'STIXGeneral', serif; text-anchor: middle" x="101.820686" y="139.122469" transform="rotate(-0 101.820686 139.122469)">10</text>
     </g>
    </g>
    <g id="xtick_3">
     <g id="line2d_5">
      <path d="M 146.036373 128.158719
L 146.036373 15.586719
" clip-path="url(#p90a593d77a)" style="fill: none; stroke: #e9ecef; stroke-width: 0.45; stroke-linecap: square"/>
     </g>
     <g id="line2d_6">
      <g>
       <use xlink:href="#m623a29323d" x="146.036373" y="128.158719" style="fill: #92989e; stroke: #92989e; stroke-width: 0.8"/>
      </g>
     </g>
     <g id="text_3">
      <text style="font-size: 8px; font-family: 'STIXGeneral', serif; text-anchor: middle" x="146.036373" y="139.122469" transform="rotate(-0 146.036373 139.122469)">20</text>
     </g>
    </g>
    <g id="text_4">
     <text style="font-size: 8px; font-family: 'STIXGeneral', serif; text-anchor: middle; fill: #202020" x="110.663824" y="150.322469" transform="rotate(-0 110.663824 150.322469)">Total tokens (millions)</text>
    </g>
   </g>
   <g id="matplotlib.axis_2">
    <g id="ytick_1">
     <g id="line2d_7">
      <defs>
       <path id="me8bc884605" d="M 0 0
L -2 0
" style="stroke: #92989e; stroke-width: 0.8"/>
      </defs>
      <g>
       <use xlink:href="#me8bc884605" x="57.605" y="62.918128" style="fill: #92989e; stroke: #92989e; stroke-width: 0.8"/>
      </g>
     </g>
     <g id="text_5">
      <text style="font-size: 8px; font-family: 'STIXGeneral', serif; text-anchor: end" x="52.105" y="65.650003" transform="rotate(-0 52.105 65.650003)">LaDiM</text>
     </g>
    </g>
    <g id="ytick_2">
     <g id="line2d_8">
      <g>
       <use xlink:href="#me8bc884605" x="57.605" y="88.502673" style="fill: #92989e; stroke: #92989e; stroke-width: 0.8"/>
      </g>
     </g>
     <g id="text_6">
      <text style="font-size: 8px; font-family: 'STIXGeneral', serif; text-anchor: end" x="52.105" y="91.234548" transform="rotate(-0 52.105 91.234548)">MatchFixAgent</text>
     </g>
    </g>
    <g id="ytick_3">
     <g id="line2d_9">
      <g>
       <use xlink:href="#me8bc884605" x="57.605" y="114.087219" style="fill: #92989e; stroke: #92989e; stroke-width: 0.8"/>
      </g>
     </g>
     <g id="text_7">
      <text style="font-size: 8px; font-family: 'STIXGeneral', serif; text-anchor: end" x="52.105" y="116.815344" transform="rotate(-0 52.105 116.815344)">SWE-agent</text>
     </g>
    </g>
   </g>
   <g id="patch_3">
    <path d="M 57.605 57.417451
L 59.502335 57.417451
L 59.502335 68.418805
L 57.605 68.418805
z
" clip-path="url(#p90a593d77a)" style="fill: #e2e6e9; stroke: #ffffff; stroke-width: 0.4; stroke-linejoin: miter"/>
   </g>
   <g id="patch_4">
    <path d="M 59.502335 57.417451
L 65.735358 57.417451
L 65.735358 68.418805
L 59.502335 68.418805
z
" clip-path="url(#p90a593d77a)" style="fill: #7bb2c9; stroke: #ffffff; stroke-width: 0.4; stroke-linejoin: miter"/>
   </g>
   <g id="patch_5">
    <path d="M 65.735358 57.417451
L 80.416465 57.417451
L 80.416465 68.418805
L 65.735358 68.418805
z
" clip-path="url(#p90a593d77a)" style="fill: #0072b2; stroke: #ffffff; stroke-width: 0.4; stroke-linejoin: miter"/>
   </g>
   <g id="patch_6">
    <path d="M 57.605 83.001996
L 59.502335 83.001996
L 59.502335 94.003351
L 57.605 94.003351
z
" clip-path="url(#p90a593d77a)" style="fill: #e2e6e9; stroke: #ffffff; stroke-width: 0.4; stroke-linejoin: miter"/>
   </g>
   <g id="patch_7">
    <path d="M 59.502335 83.001996
L 82.210906 83.001996
L 82.210906 94.003351
L 59.502335 94.003351
z
" clip-path="url(#p90a593d77a)" style="fill: #7bb2c9; stroke: #ffffff; stroke-width: 0.4; stroke-linejoin: miter"/>
   </g>
   <g id="patch_8">
    <path d="M 82.210906 83.001996
L 111.094595 83.001996
L 111.094595 94.003351
L 82.210906 94.003351
z
" clip-path="url(#p90a593d77a)" style="fill: #0072b2; stroke: #ffffff; stroke-width: 0.4; stroke-linejoin: miter"/>
   </g>
   <g id="patch_9">
    <path d="M 57.605 108.586541
L 59.502335 108.586541
L 59.502335 119.587896
L 57.605 119.587896
z
" clip-path="url(#p90a593d77a)" style="fill: #e2e6e9; stroke: #ffffff; stroke-width: 0.4; stroke-linejoin: miter"/>
   </g>
   <g id="patch_10">
    <path d="M 59.502335 108.586541
L 128.143244 108.586541
L 128.143244 119.587896
L 59.502335 119.587896
z
" clip-path="url(#p90a593d77a)" style="fill: #7bb2c9; stroke: #ffffff; stroke-width: 0.4; stroke-linejoin: miter"/>
   </g>
   <g id="patch_11">
    <path d="M 128.143244 108.586541
L 149.712885 108.586541
L 149.712885 119.587896
L 128.143244 119.587896
z
" clip-path="url(#p90a593d77a)" style="fill: #0072b2; stroke: #ffffff; stroke-width: 0.4; stroke-linejoin: miter"/>
   </g>
   <g id="patch_12">
    <path d="M 57.605 128.158719
L 57.605 15.586719
" style="fill: none; stroke: #b3bac0; stroke-width: 0.6; stroke-linejoin: miter; stroke-linecap: square"/>
   </g>
   <g id="patch_13">
    <path d="M 57.605 128.158719
L 163.722647 128.158719
" style="fill: none; stroke: #b3bac0; stroke-width: 0.6; stroke-linejoin: miter; stroke-linecap: square"/>
   </g>
   <g id="text_8">
    <text style="font-size: 8px; font-family: 'STIXGeneral', serif; text-anchor: start; fill: #202020" x="81.964014" y="64.781878" transform="rotate(-0 81.964014 64.781878)">5.16</text>
   </g>
   <g id="text_9">
    <text style="font-size: 8px; font-family: 'STIXGeneral', serif; text-anchor: start; fill: #202020" x="112.642144" y="90.366423" transform="rotate(-0 112.642144 90.366423)">12.10</text>
   </g>
   <g id="text_10">
    <text style="font-size: 8px; font-family: 'STIXGeneral', serif; text-anchor: start; fill: #202020" x="151.260434" y="115.950969" transform="rotate(-0 151.260434 115.950969)">20.83</text>
   </g>
   <g id="text_11">
    <text style="font-size: 9px; font-family: 'STIXGeneral', serif; text-anchor: start; fill: #202020" x="57.605" y="7.586719" transform="rotate(-0 57.605 7.586719)">(a) Total tokens</text>
   </g>
   <g id="legend_1">
    <g id="patch_14">
     <path d="M 62.805 26.386719
L 71.205 26.386719
L 71.205 20.786719
L 62.805 20.786719
z
" style="fill: #e2e6e9"/>
    </g>
    <g id="text_12">
     <text style="font-size: 8px; font-family: 'STIXGeneral', serif; text-anchor: start; fill: #202020" x="74.405" y="26.386719" transform="rotate(-0 74.405 26.386719)">Initial translation</text>
    </g>
    <g id="patch_15">
     <path d="M 62.805 36.122969
L 71.205 36.122969
L 71.205 30.522969
L 62.805 30.522969
z
" style="fill: #7bb2c9"/>
    </g>
    <g id="text_13">
     <text style="font-size: 8px; font-family: 'STIXGeneral', serif; text-anchor: start; fill: #202020" x="74.405" y="36.122969" transform="rotate(-0 74.405 36.122969)">Passes initial checks</text>
    </g>
    <g id="patch_16">
     <path d="M 62.805 45.859219
L 71.205 45.859219
L 71.205 40.259219
L 62.805 40.259219
z
" style="fill: #0072b2"/>
    </g>
    <g id="text_14">
     <text style="font-size: 8px; font-family: 'STIXGeneral', serif; text-anchor: start; fill: #202020" x="74.405" y="45.859219" transform="rotate(-0 74.405 45.859219)">Needs repair</text>
    </g>
   </g>
  </g>
  <g id="axes_2">
   <g id="patch_17">
    <path d="M 249.677941 128.158719
L 382.325 128.158719
L 382.325 15.586719
L 249.677941 15.586719
z
" style="fill: #ffffff"/>
   </g>
   <g id="matplotlib.axis_3">
    <g id="xtick_4">
     <g id="line2d_10">
      <g>
       <use xlink:href="#m623a29323d" x="296.104412" y="128.158719" style="fill: #92989e; stroke: #92989e; stroke-width: 0.8"/>
      </g>
     </g>
     <g id="text_15">
      <text style="font-size: 8px; font-family: 'STIXGeneral', serif; text-anchor: middle" x="296.104412" y="139.122469" transform="rotate(-0 296.104412 139.122469)">Passes initial checks</text>
     </g>
    </g>
    <g id="xtick_5">
     <g id="line2d_11">
      <g>
       <use xlink:href="#m623a29323d" x="360.217157" y="128.158719" style="fill: #92989e; stroke: #92989e; stroke-width: 0.8"/>
      </g>
     </g>
     <g id="text_16">
      <text style="font-size: 8px; font-family: 'STIXGeneral', serif; text-anchor: middle" x="360.217157" y="139.122469" transform="rotate(-0 360.217157 139.122469)">Needs repair</text>
     </g>
    </g>
    <g id="text_17">
     <text style="font-size: 8px; font-family: 'STIXGeneral', serif; text-anchor: middle; fill: #202020" x="316.001471" y="150.322469" transform="rotate(-0 316.001471 150.322469)">Migration inputs</text>
    </g>
   </g>
   <g id="matplotlib.axis_4">
    <g id="ytick_4">
     <g id="line2d_12">
      <path d="M 249.677941 115.988773
L 382.325 115.988773
" clip-path="url(#p788d6c14db)" style="fill: none; stroke: #e9ecef; stroke-width: 0.45; stroke-linecap: square"/>
     </g>
     <g id="line2d_13">
      <g>
       <use xlink:href="#me8bc884605" x="249.677941" y="115.988773" style="fill: #92989e; stroke: #92989e; stroke-width: 0.8"/>
      </g>
     </g>
     <g id="text_18">
      <text style="font-size: 8px; font-family: 'STIXGeneral', serif; text-anchor: end" x="244.177941" y="118.720648" transform="rotate(-0 244.177941 118.720648)">0</text>
     </g>
    </g>
    <g id="ytick_5">
     <g id="line2d_14">
      <path d="M 249.677941 100.77634
L 382.325 100.77634
" clip-path="url(#p788d6c14db)" style="fill: none; stroke: #e9ecef; stroke-width: 0.45; stroke-linecap: square"/>
     </g>
     <g id="line2d_15">
      <g>
       <use xlink:href="#me8bc884605" x="249.677941" y="100.77634" style="fill: #92989e; stroke: #92989e; stroke-width: 0.8"/>
      </g>
     </g>
     <g id="text_19">
      <text style="font-size: 8px; font-family: 'STIXGeneral', serif; text-anchor: end" x="244.177941" y="103.508215" transform="rotate(-0 244.177941 103.508215)">250</text>
     </g>
    </g>
    <g id="ytick_6">
     <g id="line2d_16">
      <path d="M 249.677941 85.563908
L 382.325 85.563908
" clip-path="url(#p788d6c14db)" style="fill: none; stroke: #e9ecef; stroke-width: 0.45; stroke-linecap: square"/>
     </g>
     <g id="line2d_17">
      <g>
       <use xlink:href="#me8bc884605" x="249.677941" y="85.563908" style="fill: #92989e; stroke: #92989e; stroke-width: 0.8"/>
      </g>
     </g>
     <g id="text_20">
      <text style="font-size: 8px; font-family: 'STIXGeneral', serif; text-anchor: end" x="244.177941" y="88.295783" transform="rotate(-0 244.177941 88.295783)">500</text>
     </g>
    </g>
    <g id="ytick_7">
     <g id="line2d_18">
      <path d="M 249.677941 70.351476
L 382.325 70.351476
" clip-path="url(#p788d6c14db)" style="fill: none; stroke: #e9ecef; stroke-width: 0.45; stroke-linecap: square"/>
     </g>
     <g id="line2d_19">
      <g>
       <use xlink:href="#me8bc884605" x="249.677941" y="70.351476" style="fill: #92989e; stroke: #92989e; stroke-width: 0.8"/>
      </g>
     </g>
     <g id="text_21">
      <text style="font-size: 8px; font-family: 'STIXGeneral', serif; text-anchor: end" x="244.177941" y="73.083351" transform="rotate(-0 244.177941 73.083351)">750</text>
     </g>
    </g>
    <g id="ytick_8">
     <g id="line2d_20">
      <path d="M 249.677941 55.139043
L 382.325 55.139043
" clip-path="url(#p788d6c14db)" style="fill: none; stroke: #e9ecef; stroke-width: 0.45; stroke-linecap: square"/>
     </g>
     <g id="line2d_21">
      <g>
       <use xlink:href="#me8bc884605" x="249.677941" y="55.139043" style="fill: #92989e; stroke: #92989e; stroke-width: 0.8"/>
      </g>
     </g>
     <g id="text_22">
      <text style="font-size: 8px; font-family: 'STIXGeneral', serif; text-anchor: end" x="244.177941" y="57.870918" transform="rotate(-0 244.177941 57.870918)">1000</text>
     </g>
    </g>
    <g id="ytick_9">
     <g id="line2d_22">
      <path d="M 249.677941 39.926611
L 382.325 39.926611
" clip-path="url(#p788d6c14db)" style="fill: none; stroke: #e9ecef; stroke-width: 0.45; stroke-linecap: square"/>
     </g>
     <g id="line2d_23">
      <g>
       <use xlink:href="#me8bc884605" x="249.677941" y="39.926611" style="fill: #92989e; stroke: #92989e; stroke-width: 0.8"/>
      </g>
     </g>
     <g id="text_23">
      <text style="font-size: 8px; font-family: 'STIXGeneral', serif; text-anchor: end" x="244.177941" y="42.658486" transform="rotate(-0 244.177941 42.658486)">1250</text>
     </g>
    </g>
    <g id="text_24">
     <text style="font-size: 8px; font-family: 'STIXGeneral', serif; fill: #202020" transform="translate(214.141441 111.533969) rotate(-90)">Tokens saved by LaDiM</text>
     <text style="font-size: 8px; font-family: 'STIXGeneral', serif; fill: #202020" transform="translate(222.441691 90.537094) rotate(-90)">(thousands)</text>
    </g>
   </g>
   <g id="line2d_24">
    <path d="M 340.320098 128.158719
L 340.320098 15.586719
" clip-path="url(#p788d6c14db)" style="fill: none; stroke-dasharray: 1.1,1.65; stroke-dashoffset: 0; stroke: #686868; stroke-width: 0.55"/>
   </g>
   <g id="patch_18">
    <path d="M 249.677941 128.158719
L 249.677941 15.586719
" style="fill: none; stroke: #b3bac0; stroke-width: 0.6; stroke-linejoin: miter; stroke-linecap: square"/>
   </g>
   <g id="patch_19">
    <path d="M 249.677941 128.158719
L 382.325 128.158719
" style="fill: none; stroke: #b3bac0; stroke-width: 0.6; stroke-linejoin: miter; stroke-linecap: square"/>
   </g>
   <g id="patch_20">
    <path d="M 252.419314 115.988773
L 255.779706 115.988773
L 255.779706 116.761017
L 252.419314 116.761017
z
" clip-path="url(#p788d6c14db)" style="fill: #d55e00"/>
   </g>
   <g id="patch_21">
    <path d="M 256.840882 115.988773
L 260.201275 115.988773
L 260.201275 115.826061
L 256.840882 115.826061
z
" clip-path="url(#p788d6c14db)" style="fill: #009e73"/>
   </g>
   <g id="patch_22">
    <path d="M 261.262451 115.988773
L 264.622843 115.988773
L 264.622843 115.499784
L 261.262451 115.499784
z
" clip-path="url(#p788d6c14db)" style="fill: #009e73"/>
   </g>
   <g id="patch_23">
    <path d="M 265.68402 115.988773
L 269.044412 115.988773
L 269.044412 115.259063
L 265.68402 115.259063
z
" clip-path="url(#p788d6c14db)" style="fill: #009e73"/>
   </g>
   <g id="patch_24">
    <path d="M 270.105588 115.988773
L 273.46598 115.988773
L 273.46598 114.054421
L 270.105588 114.054421
z
" clip-path="url(#p788d6c14db)" style="fill: #009e73"/>
   </g>
   <g id="patch_25">
    <path d="M 274.527157 115.988773
L 277.887549 115.988773
L 277.887549 113.841629
L 274.527157 113.841629
z
" clip-path="url(#p788d6c14db)" style="fill: #009e73"/>
   </g>
   <g id="patch_26">
    <path d="M 278.948725 115.988773
L 282.309118 115.988773
L 282.309118 113.452617
L 278.948725 113.452617
z
" clip-path="url(#p788d6c14db)" style="fill: #009e73"/>
   </g>
   <g id="patch_27">
    <path d="M 283.370294 115.988773
L 286.730686 115.988773
L 286.730686 113.104313
L 283.370294 113.104313
z
" clip-path="url(#p788d6c14db)" style="fill: #009e73"/>
   </g>
   <g id="patch_28">
    <path d="M 287.791863 115.988773
L 291.152255 115.988773
L 291.152255 112.351298
L 287.791863 112.351298
z
" clip-path="url(#p788d6c14db)" style="fill: #009e73"/>
   </g>
   <g id="patch_29">
    <path d="M 292.213431 115.988773
L 295.573824 115.988773
L 295.573824 112.176111
L 292.213431 112.176111
z
" clip-path="url(#p788d6c14db)" style="fill: #009e73"/>
   </g>
   <g id="patch_30">
    <path d="M 296.635 115.988773
L 299.995392 115.988773
L 299.995392 111.327075
L 296.635 111.327075
z
" clip-path="url(#p788d6c14db)" style="fill: #009e73"/>
   </g>
   <g id="patch_31">
    <path d="M 301.056569 115.988773
L 304.416961 115.988773
L 304.416961 110.117747
L 301.056569 110.117747
z
" clip-path="url(#p788d6c14db)" style="fill: #009e73"/>
   </g>
   <g id="patch_32">
    <path d="M 305.478137 115.988773
L 308.838529 115.988773
L 308.838529 109.765914
L 305.478137 109.765914
z
" clip-path="url(#p788d6c14db)" style="fill: #009e73"/>
   </g>
   <g id="patch_33">
    <path d="M 309.899706 115.988773
L 313.260098 115.988773
L 313.260098 107.659053
L 309.899706 107.659053
z
" clip-path="url(#p788d6c14db)" style="fill: #009e73"/>
   </g>
   <g id="patch_34">
    <path d="M 314.321275 115.988773
L 317.681667 115.988773
L 317.681667 107.268033
L 314.321275 107.268033
z
" clip-path="url(#p788d6c14db)" style="fill: #009e73"/>
   </g>
   <g id="patch_35">
    <path d="M 318.742843 115.988773
L 322.103235 115.988773
L 322.103235 105.192327
L 318.742843 105.192327
z
" clip-path="url(#p788d6c14db)" style="fill: #009e73"/>
   </g>
   <g id="patch_36">
    <path d="M 323.164412 115.988773
L 326.524804 115.988773
L 326.524804 100.764779
L 323.164412 100.764779
z
" clip-path="url(#p788d6c14db)" style="fill: #009e73"/>
   </g>
   <g id="patch_37">
    <path d="M 327.58598 115.988773
L 330.946373 115.988773
L 330.946373 92.811111
L 327.58598 92.811111
z
" clip-path="url(#p788d6c14db)" style="fill: #009e73"/>
   </g>
   <g id="patch_38">
    <path d="M 332.007549 115.988773
L 335.367941 115.988773
L 335.367941 65.368369
L 332.007549 65.368369
z
" clip-path="url(#p788d6c14db)" style="fill: #009e73"/>
   </g>
   <g id="patch_39">
    <path d="M 336.429118 115.988773
L 339.78951 115.988773
L 339.78951 40.43787
L 336.429118 40.43787
z
" clip-path="url(#p788d6c14db)" style="fill: #009e73"/>
   </g>
   <g id="patch_40">
    <path d="M 340.850686 115.988773
L 344.211078 115.988773
L 344.211078 123.903923
L 340.850686 123.903923
z
" clip-path="url(#p788d6c14db)" style="fill: #d55e00"/>
   </g>
   <g id="patch_41">
    <path d="M 345.272255 115.988773
L 348.632647 115.988773
L 348.632647 110.304739
L 345.272255 110.304739
z
" clip-path="url(#p788d6c14db)" style="fill: #009e73"/>
   </g>
   <g id="patch_42">
    <path d="M 349.693824 115.988773
L 353.054216 115.988773
L 353.054216 109.207557
L 349.693824 109.207557
z
" clip-path="url(#p788d6c14db)" style="fill: #009e73"/>
   </g>
   <g id="patch_43">
    <path d="M 354.115392 115.988773
L 357.475784 115.988773
L 357.475784 109.078556
L 354.115392 109.078556
z
" clip-path="url(#p788d6c14db)" style="fill: #009e73"/>
   </g>
   <g id="patch_44">
    <path d="M 358.536961 115.988773
L 361.897353 115.988773
L 361.897353 106.43287
L 358.536961 106.43287
z
" clip-path="url(#p788d6c14db)" style="fill: #009e73"/>
   </g>
   <g id="patch_45">
    <path d="M 362.958529 115.988773
L 366.318922 115.988773
L 366.318922 85.597862
L 362.958529 85.597862
z
" clip-path="url(#p788d6c14db)" style="fill: #009e73"/>
   </g>
   <g id="patch_46">
    <path d="M 367.380098 115.988773
L 370.74049 115.988773
L 370.74049 85.466244
L 367.380098 85.466244
z
" clip-path="url(#p788d6c14db)" style="fill: #009e73"/>
   </g>
   <g id="patch_47">
    <path d="M 371.801667 115.988773
L 375.162059 115.988773
L 375.162059 70.104669
L 371.801667 70.104669
z
" clip-path="url(#p788d6c14db)" style="fill: #009e73"/>
   </g>
   <g id="patch_48">
    <path d="M 376.223235 115.988773
L 379.583627 115.988773
L 379.583627 48.346266
L 376.223235 48.346266
z
" clip-path="url(#p788d6c14db)" style="fill: #009e73"/>
   </g>
   <g id="text_25">
    <text style="font-size: 9px; font-family: 'STIXGeneral', serif; text-anchor: start; fill: #202020" x="249.677941" y="7.586719" transform="rotate(-0 249.677941 7.586719)">(b) Savings on each input</text>
   </g>
   <g id="line2d_25">
    <path d="M 249.677941 115.988773
L 382.325 115.988773
" clip-path="url(#p788d6c14db)" style="fill: none; stroke: #686868; stroke-width: 0.7; stroke-linecap: square"/>
   </g>
   <g id="legend_2">
    <g id="patch_49">
     <path d="M 254.477941 25.986719
L 262.477941 25.986719
L 262.477941 20.386719
L 254.477941 20.386719
z
" style="fill: #009e73"/>
    </g>
    <g id="text_26">
     <text style="font-size: 8px; font-family: 'STIXGeneral', serif; text-anchor: start; fill: #202020" x="265.277941" y="25.986719" transform="rotate(-0 265.277941 25.986719)">Lower token use by LaDiM</text>
    </g>
    <g id="patch_50">
     <path d="M 254.477941 35.330469
L 262.477941 35.330469
L 262.477941 29.730469
L 254.477941 29.730469
z
" style="fill: #d55e00"/>
    </g>
    <g id="text_27">
     <text style="font-size: 8px; font-family: 'STIXGeneral', serif; text-anchor: start; fill: #202020" x="265.277941" y="35.330469" transform="rotate(-0 265.277941 35.330469)">Higher token use by LaDiM</text>
    </g>
   </g>
  </g>
 </g>
 <defs>
  <clipPath id="p90a593d77a">
   <rect x="57.605" y="15.586719" width="106.117647" height="112.572"/>
  </clipPath>
  <clipPath id="p788d6c14db">
   <rect x="249.677941" y="15.586719" width="132.647059" height="112.572"/>
  </clipPath>
 </defs>
</svg>
